<svg version="1.1" xmlns="http://www.w3.org/2000/svg" xmlns:xlink="http://www.w3.org/1999/xlink" width="124.29478" height="124.29478" viewBox="0,0,124.29478,124.29478"><g transform="translate(-177.85261,-117.85261)"><g data-paper-data="{&quot;isPaintingLayer&quot;:true}" fill-rule="nonzero" stroke-linecap="butt" stroke-linejoin="miter" stroke-miterlimit="10" stroke-dasharray="" stroke-dashoffset="0" style="mix-blend-mode: normal"><path d="M177.85261,242.14739v-124.29478h124.29478v124.29478z" fill="#9eb2ff" stroke="none" stroke-width="0"/><path d="M212.06731,161.97891c0,-2.98583 2.42049,-5.40633 5.40633,-5.40633c2.98583,0 5.40633,2.42049 5.40633,5.40633c0,2.98583 -2.4205,5.40633 -5.40633,5.40633c-2.98583,0 -5.40633,-2.4205 -5.40633,-5.40633zM264.32847,158.37469c1.99358,0 3.60422,1.61063 3.60422,3.60421c0,1.99358 -1.61064,3.60422 -3.60422,3.60422h-32.43796c-1.99358,0 -3.60422,-1.61064 -3.60422,-3.60422c0,-1.99358 1.61064,-3.60421 3.60422,-3.60421zM264.32847,176.39578c1.99358,0 3.60422,1.61064 3.60422,3.60422c0,1.99358 -1.61064,3.60422 -3.60422,3.60422h-32.43796c-1.99358,0 -3.60422,-1.61064 -3.60422,-3.60422c0,-1.99358 1.61064,-3.60422 3.60422,-3.60422zM264.32847,194.41688c1.99358,0 3.60422,1.61064 3.60422,3.60422c0,1.99358 -1.61064,3.60421 -3.60422,3.60421h-32.43796c-1.99358,0 -3.60422,-1.61063 -3.60422,-3.60421c0,-1.99358 1.61064,-3.60422 3.60422,-3.60422zM212.06731,198.02109c0,-2.98583 2.42049,-5.40633 5.40633,-5.40633c2.98583,0 5.40633,2.4205 5.40633,5.40633c0,2.98583 -2.4205,5.40633 -5.40633,5.40633c-2.98583,0 -5.40633,-2.42049 -5.40633,-5.40633zM217.47363,185.40633c-2.98583,0 -5.40633,-2.42049 -5.40633,-5.40633c0,-2.98583 2.42049,-5.40633 5.40633,-5.40633c2.98583,0 5.40633,2.42049 5.40633,5.40633c0,2.98583 -2.4205,5.40633 -5.40633,5.40633z" fill="none" stroke="#96a8f2" stroke-width="7"/><path d="M212.06731,161.97891c0,-2.98583 2.42049,-5.40633 5.40633,-5.40633c2.98583,0 5.40633,2.42049 5.40633,5.40633c0,2.98583 -2.4205,5.40633 -5.40633,5.40633c-2.98583,0 -5.40633,-2.4205 -5.40633,-5.40633zM264.32847,158.37469c1.99358,0 3.60422,1.61063 3.60422,3.60421c0,1.99358 -1.61064,3.60422 -3.60422,3.60422h-32.43796c-1.99358,0 -3.60422,-1.61064 -3.60422,-3.60422c0,-1.99358 1.61064,-3.60421 3.60422,-3.60421zM264.32847,176.39578c1.99358,0 3.60422,1.61064 3.60422,3.60422c0,1.99358 -1.61064,3.60422 -3.60422,3.60422h-32.43796c-1.99358,0 -3.60422,-1.61064 -3.60422,-3.60422c0,-1.99358 1.61064,-3.60422 3.60422,-3.60422zM264.32847,194.41688c1.99358,0 3.60422,1.61064 3.60422,3.60422c0,1.99358 -1.61064,3.60421 -3.60422,3.60421h-32.43796c-1.99358,0 -3.60422,-1.61063 -3.60422,-3.60421c0,-1.99358 1.61064,-3.60422 3.60422,-3.60422zM212.06731,198.02109c0,-2.98583 2.42049,-5.40633 5.40633,-5.40633c2.98583,0 5.40633,2.4205 5.40633,5.40633c0,2.98583 -2.4205,5.40633 -5.40633,5.40633c-2.98583,0 -5.40633,-2.42049 -5.40633,-5.40633zM217.47363,185.40633c-2.98583,0 -5.40633,-2.42049 -5.40633,-5.40633c0,-2.98583 2.42049,-5.40633 5.40633,-5.40633c2.98583,0 5.40633,2.42049 5.40633,5.40633c0,2.98583 -2.4205,5.40633 -5.40633,5.40633z" fill="#c4d9ff" stroke="none" stroke-width="0"/></g></g></svg>