<svg version="1.1" xmlns="http://www.w3.org/2000/svg" xmlns:xlink="http://www.w3.org/1999/xlink" width="98.87622" height="98.87622" viewBox="0,0,98.87622,98.87622"><defs><linearGradient x1="223.61416" y1="198.18591" x2="260.38065" y2="161.41942" gradientUnits="userSpaceOnUse" id="color-1"><stop offset="0" stop-color="#0c6cb3"/><stop offset="0.2911" stop-color="#1e84c4"/><stop offset="0.8873" stop-color="#4cc0ef"/><stop offset="1" stop-color="#4cc0ef"/></linearGradient><linearGradient x1="217.93493" y1="192.50669" x2="254.70142" y2="155.7402" gradientUnits="userSpaceOnUse" id="color-2"><stop offset="0" stop-color="#0c6cb3"/><stop offset="0.2911" stop-color="#1e84c4"/><stop offset="0.8873" stop-color="#4cc0ef"/><stop offset="1" stop-color="#4cc0ef"/></linearGradient><linearGradient x1="209.73482" y1="184.30658" x2="246.50131" y2="147.54009" gradientUnits="userSpaceOnUse" id="color-3"><stop offset="0" stop-color="#0c6cb3"/><stop offset="0.2911" stop-color="#1e84c4"/><stop offset="0.8873" stop-color="#4cc0ef"/><stop offset="1" stop-color="#4cc0ef"/></linearGradient><linearGradient x1="225.07579" y1="199.64755" x2="261.84228" y2="162.88106" gradientUnits="userSpaceOnUse" id="color-4"><stop offset="0" stop-color="#0c6cb3"/><stop offset="0.2911" stop-color="#1e84c4"/><stop offset="0.8873" stop-color="#4cc0ef"/><stop offset="1" stop-color="#4cc0ef"/></linearGradient><linearGradient x1="231.7801" y1="206.35186" x2="268.54659" y2="169.58537" gradientUnits="userSpaceOnUse" id="color-5"><stop offset="0" stop-color="#0c6cb3"/><stop offset="0.2911" stop-color="#1e84c4"/><stop offset="0.8873" stop-color="#4cc0ef"/><stop offset="1" stop-color="#4cc0ef"/></linearGradient><linearGradient x1="238.53154" y1="213.1033" x2="275.29803" y2="176.33681" gradientUnits="userSpaceOnUse" id="color-6"><stop offset="0" stop-color="#0c6cb3"/><stop offset="0.2911" stop-color="#1e84c4"/><stop offset="0.8873" stop-color="#4cc0ef"/><stop offset="1" stop-color="#4cc0ef"/></linearGradient><linearGradient x1="227.27855" y1="201.85031" x2="264.04504" y2="165.08382" gradientUnits="userSpaceOnUse" id="color-7"><stop offset="0" stop-color="#0c6cb3"/><stop offset="0.2911" stop-color="#1e84c4"/><stop offset="0.8873" stop-color="#4cc0ef"/><stop offset="1" stop-color="#4cc0ef"/></linearGradient><linearGradient x1="222.64739" y1="197.21915" x2="259.41388" y2="160.45266" gradientUnits="userSpaceOnUse" id="color-8"><stop offset="0" stop-color="#0c6cb3"/><stop offset="0.2911" stop-color="#1e84c4"/><stop offset="0.8873" stop-color="#4cc0ef"/><stop offset="1" stop-color="#4cc0ef"/></linearGradient></defs><g transform="translate(-190.56189,-130.56189)"><g data-paper-data="{&quot;isPaintingLayer&quot;:true}" fill-rule="nonzero" stroke="none" stroke-linecap="butt" stroke-linejoin="miter" stroke-miterlimit="10" stroke-dasharray="" stroke-dashoffset="0" style="mix-blend-mode: normal"><path d="M190.56189,180c0,-27.30392 22.13419,-49.43811 49.43811,-49.43811c27.30392,0 49.43811,22.13419 49.43811,49.43811c0,27.30392 -22.13419,49.43811 -49.43811,49.43811c-27.30392,0 -49.43811,-22.13419 -49.43811,-49.43811z" fill="#ffffff" stroke-width="0"/><path d="M250.07266,176.50385c0,-0.38846 -0.06474,-0.64744 -0.32372,-0.90641c-0.25897,-0.25897 -0.64744,-0.45321 -1.29487,-0.71218l-1.94231,-0.71218c-1.68333,-0.64744 -2.525,-1.74808 -2.525,-3.23718c0,-0.97115 0.38846,-1.81282 1.16538,-2.39551c0.77692,-0.58269 1.81282,-0.90641 3.04295,-0.90641c0.97115,0 1.94231,0.19423 2.91346,0.51795c0.19423,0.06474 0.32372,0.12949 0.38846,0.25897c0.06474,0.12949 0.12949,0.25897 0.12949,0.45321v0.64744c0,0.25897 -0.12949,0.38846 -0.32372,0.38846c-0.06474,0 -0.25897,-0.06474 -0.51795,-0.12949c-0.77692,-0.25897 -1.61859,-0.38846 -2.46026,-0.38846c-1.4891,0 -2.20128,0.51795 -2.20128,1.4891c0,0.45321 0.12949,0.71218 0.38846,0.97115c0.19423,0.25897 0.71218,0.51795 1.42436,0.77692l1.81282,0.71218c0.90641,0.32372 1.55385,0.77692 1.94231,1.23013c0.38846,0.51795 0.58269,1.10064 0.58269,1.87756c0,1.10064 -0.38846,1.94231 -1.23013,2.58974c-0.84167,0.64744 -1.87756,0.97115 -3.23718,0.97115c-1.29487,0 -2.46026,-0.19423 -3.49615,-0.64744c-0.19423,-0.06474 -0.32372,-0.19423 -0.38846,-0.25897c-0.06474,-0.12949 -0.12949,-0.25897 -0.12949,-0.45321v-0.64744c0,-0.25897 0.06474,-0.38846 0.25897,-0.38846c0.12949,0 0.32372,0.06474 0.58269,0.12949c1.0359,0.32372 2.07179,0.45321 3.17244,0.45321c0.71218,0 1.29487,-0.19423 1.68333,-0.45321c0.38846,-0.25897 0.58269,-0.71218 0.58269,-1.23013z" fill="url(#color-1)" stroke-width="1"/><path d="M239.84317,167.95769h1.35962c0.32372,0 0.45321,0.12949 0.45321,0.45321v10.68269c0,0.32372 -0.12949,0.45321 -0.45321,0.45321h-0.97115c-0.19423,0 -0.32372,0 -0.38846,-0.06474c-0.12949,-0.06474 -0.19423,-0.12949 -0.19423,-0.32372l-0.12949,-0.77692c-1.42436,1.0359 -2.91346,1.55385 -4.40256,1.55385c-1.10064,0 -1.94231,-0.32372 -2.525,-0.90641c-0.58269,-0.58269 -0.84167,-1.4891 -0.84167,-2.58974v-8.02821c0,-0.32372 0.12949,-0.45321 0.45321,-0.45321h1.35962c0.32372,0 0.45321,0.12949 0.45321,0.45321v7.31603c0,0.84167 0.12949,1.42436 0.45321,1.81282c0.32372,0.38846 0.84167,0.58269 1.55385,0.58269c1.10064,0 2.20128,-0.38846 3.30192,-1.10064v-8.6109c0,-0.25897 0.12949,-0.45321 0.51795,-0.45321z" fill="url(#color-2)" stroke-width="1"/><path d="M226.57074,179.15833v-7.44551c0,-0.77692 -0.19423,-1.29487 -0.45321,-1.68333c-0.25897,-0.38846 -0.71218,-0.58269 -1.35962,-0.58269c-1.10064,0 -2.20128,0.32372 -3.36667,1.0359c0,0.06474 0,0.19423 0,0.32372v0.38846v7.96346c0,0.32372 -0.12949,0.45321 -0.45321,0.45321h-1.35962c-0.32372,0 -0.45321,-0.12949 -0.45321,-0.45321v-7.44551c0,-0.77692 -0.19423,-1.29487 -0.45321,-1.68333c-0.25897,-0.38846 -0.71218,-0.58269 -1.35962,-0.58269c-1.16538,0 -2.26603,0.38846 -3.36667,1.0359v8.74038c0,0.32372 -0.12949,0.45321 -0.45321,0.45321h-1.35962c-0.32372,0 -0.45321,-0.12949 -0.45321,-0.45321v-10.74744c0,-0.32372 0.12949,-0.45321 0.45321,-0.45321h1.0359c0.12949,0 0.25897,0 0.32372,0.06474c0.12949,0.06474 0.19423,0.12949 0.19423,0.32372l0.12949,0.71218c1.42436,-0.97115 2.84872,-1.4891 4.27308,-1.4891c1.42436,0 2.39551,0.51795 2.91346,1.61859c1.4891,-1.10064 3.04295,-1.61859 4.53205,-1.61859c1.10064,0 1.87756,0.32372 2.46026,0.90641c0.58269,0.58269 0.84167,1.42436 0.84167,2.525v8.09295c0,0.32372 -0.12949,0.45321 -0.45321,0.45321h-1.35962c-0.32372,0 -0.45321,-0.12949 -0.45321,-0.45321z" fill="url(#color-3)" stroke-width="1"/><path d="M263.21561,189.71154c-6.28013,4.66154 -15.40897,7.12179 -23.30769,7.12179c-11.00641,0 -20.97692,-4.07885 -28.48718,-10.87692c-0.45321,-0.45321 -0.19423,-0.97115 0.25897,-0.97115c0.12949,0 0.25897,0.06474 0.38846,0.12949c8.09295,4.72628 18.12821,7.575 28.48718,7.575c6.99231,0 14.69679,-1.4891 21.75385,-4.46731c1.10064,-0.45321 2.00705,0.71218 0.90641,1.4891z" fill="url(#color-4)" stroke-width="1"/><path d="M261.20856,173.65513v0.32372c0,1.35962 0.25897,2.39551 0.84167,3.04295c0.58269,0.64744 1.4891,0.97115 2.71923,0.97115c0.64744,0 1.35962,-0.12949 2.07179,-0.32372c0.12949,-0.06474 0.25897,-0.06474 0.32372,-0.06474c0.19423,0 0.32372,0.12949 0.32372,0.45321v0.64744c0,0.19423 0,0.38846 -0.06474,0.45321c-0.06474,0.12949 -0.19423,0.19423 -0.38846,0.25897c-0.71218,0.32372 -1.61859,0.45321 -2.58974,0.45321c-1.81282,0 -3.17244,-0.51795 -4.14359,-1.55385c-0.97115,-1.0359 -1.42436,-2.525 -1.42436,-4.46731c0,-1.94231 0.51795,-3.49615 1.4891,-4.53205c1.0359,-1.10064 2.39551,-1.61859 4.20833,-1.61859c0.77692,0 1.61859,0.19423 2.46026,0.38846c0.12949,0.06474 0.25897,0.19423 0.32372,0.25897c0.06474,0.06474 0.12949,0.25897 0.12949,0.45321v0.64744c0,0.32372 -0.12949,0.45321 -0.32372,0.45321c-0.12949,0 -0.19423,0 -0.38846,-0.06474c-0.58269,-0.19423 -1.23013,-0.25897 -1.87756,-0.25897c-1.29487,0 -2.20128,0.32372 -2.78397,0.97115c-0.58269,0.64744 -0.84167,1.68333 -0.90641,3.10769z" fill="url(#color-5)" stroke-width="1"/><path d="M264.18676,193.91987c0.77692,-1.87756 2.46026,-6.15064 1.68333,-7.18654c-0.84167,-1.0359 -5.37372,-0.51795 -7.38077,-0.25897c-0.58269,0.06474 -0.71218,-0.45321 -0.12949,-0.84167c1.87756,-1.29487 4.33782,-1.74808 6.40962,-1.74808c1.94231,0 3.49615,0.38846 3.81987,0.77692c0.71218,0.90641 -0.19423,6.79808 -3.5609,9.64679c-0.58269,0.38846 -1.0359,0.19423 -0.84167,-0.38846z" fill="url(#color-6)" stroke-width="1"/><path d="M256.48228,168.4109v10.74744c0,0.32372 -0.12949,0.45321 -0.45321,0.45321h-1.35962c-0.32372,0 -0.45321,-0.12949 -0.45321,-0.45321v-10.74744c0,-0.32372 0.12949,-0.45321 0.45321,-0.45321h1.35962c0.32372,0 0.45321,0.19423 0.45321,0.45321z" fill="url(#color-7)" stroke-width="1"/><path d="M256.74125,164.52628c0,0.38846 -0.12949,0.71218 -0.38846,0.97115c-0.25897,0.25897 -0.58269,0.38846 -1.0359,0.38846c-0.45321,0 -0.77692,-0.12949 -1.0359,-0.38846c-0.25897,-0.19423 -0.38846,-0.58269 -0.38846,-0.97115c0,-0.38846 0.12949,-0.71218 0.38846,-0.97115c0.25897,-0.25897 0.58269,-0.38846 1.0359,-0.38846c0.45321,0 0.84167,0.12949 1.10064,0.38846c0.25897,0.19423 0.32372,0.58269 0.32372,0.97115z" fill="url(#color-8)" stroke-width="1"/></g></g></svg>