<svg version="1.1" xmlns="http://www.w3.org/2000/svg" xmlns:xlink="http://www.w3.org/1999/xlink" width="396.09638" height="396.09638" viewBox="0,0,396.09638,396.09638"><defs><linearGradient x1="240" y1="-18.04819" x2="240" y2="378.04819" gradientUnits="userSpaceOnUse" id="color-1"><stop offset="0" stop-color="#fb5c74"/><stop offset="1" stop-color="#fa233b"/></linearGradient></defs><g transform="translate(-41.95181,18.04819)"><g data-paper-data="{&quot;isPaintingLayer&quot;:true}" stroke="none" stroke-linecap="butt" stroke-linejoin="miter" stroke-miterlimit="10" stroke-dasharray="" stroke-dashoffset="0" style="mix-blend-mode: normal"><path d="M41.95181,180c0,-109.379 88.66919,-198.04819 198.04819,-198.04819c109.379,0 198.04819,88.66919 198.04819,198.04819c0,109.379 -88.66919,198.04819 -198.04819,198.04819c-109.379,0 -198.04819,-88.66919 -198.04819,-198.04819z" fill="url(#color-1)" fill-rule="nonzero" stroke-width="0"/><path d="M311.4381,83.18725v145.54322c0,3.90835 -0.03429,7.44815 -0.8571,11.36507c-0.7971,3.79693 -2.24559,7.37102 -4.49118,10.58512c-2.23702,3.20553 -5.09971,5.83681 -8.44238,7.80813c-3.37695,1.99703 -6.92532,3.13697 -10.71368,3.89978c-7.11388,1.43135 -11.98218,1.75705 -16.55049,0.83995c-4.40546,-0.89138 -8.1424,-2.91412 -11.13366,-5.65683c-4.43118,-4.05406 -7.19102,-9.53946 -7.79099,-15.27342c-0.70282,-6.71962 1.52563,-13.8935 6.57391,-19.18178c2.54557,-2.67413 5.74253,-4.78258 10.01086,-6.43678c4.46546,-1.73133 9.39375,-2.76841 16.97047,-4.29404c1.99703,-0.40283 3.99407,-0.80567 5.99109,-1.20851c2.63128,-0.5314 4.87686,-1.19993 6.69391,-3.41981c1.83418,-2.22845 1.8599,-4.954 1.8599,-7.64528v-67.95903c0,-5.20256 -2.33987,-6.61676 -7.30245,-5.66539c-3.55694,0.69425 -79.78693,16.07052 -79.78693,16.07052c-4.30261,1.04565 -5.8111,2.45129 -5.8111,7.78242v99.55153c0,3.90835 -0.19713,7.44815 -1.01994,11.36507c-0.7971,3.79693 -2.24559,7.37101 -4.49118,10.58512c-2.23702,3.20553 -5.09971,5.83682 -8.44238,7.80813c-3.37695,1.99703 -6.92533,3.18839 -10.71369,3.95121c-7.11388,1.43992 -11.98218,1.75705 -16.55049,0.83995c-4.40546,-0.88281 -8.1424,-2.96555 -11.13366,-5.70825c-4.43118,-4.05406 -7.01103,-9.53946 -7.611,-15.27342c-0.70282,-6.71962 1.34564,-13.8935 6.39393,-19.18178c2.54557,-2.67413 5.74253,-4.78259 10.01086,-6.43678c4.46546,-1.73133 9.39375,-2.76841 16.97047,-4.29404c1.99703,-0.40283 3.99406,-0.80567 5.99109,-1.2085c2.63128,-0.5314 4.87687,-1.19993 6.69391,-3.41981c1.81704,-2.21987 2.03131,-4.82545 2.03131,-7.50815c0,-21.08452 0,-114.7821 0,-114.7821c0,-1.54277 0.12856,-2.58843 0.2057,-3.10268c0.36855,-2.41701 1.33707,-4.49117 3.08554,-5.9568c1.44849,-1.21708 3.32553,-2.0656 5.71682,-2.57128l0.03429,-0.00857l91.70912,-18.50467c0.7971,-0.16285 7.42244,-1.33707 8.16811,-1.40563c4.96258,-0.42855 7.74813,2.82841 7.73099,8.10811z" fill="#ffffff" fill-rule="evenodd" stroke-width="1"/><g fill="none" fill-rule="nonzero" stroke-width="1" font-family="sans-serif" font-weight="normal" font-size="12" text-anchor="start"/><g fill="none" fill-rule="nonzero" stroke-width="1" font-family="sans-serif" font-weight="normal" font-size="12" text-anchor="start"/><g fill="none" fill-rule="nonzero" stroke-width="1" font-family="sans-serif" font-weight="normal" font-size="12" text-anchor="start"/></g></g></svg>