<svg version="1.1" xmlns="http://www.w3.org/2000/svg" xmlns:xlink="http://www.w3.org/1999/xlink" width="17.975" height="14" viewBox="0,0,17.975,14"><g transform="translate(-231.0125,-173)"><g data-paper-data="{&quot;isPaintingLayer&quot;:true}" fill="#1f1f1f" fill-rule="nonzero" stroke="none" stroke-width="1" stroke-linecap="butt" stroke-linejoin="miter" stroke-miterlimit="10" stroke-dasharray="" stroke-dashoffset="0" style="mix-blend-mode: normal"><path d="M231.0125,185v-10c0,-0.55 0.19583,-1.02083 0.5875,-1.4125c0.39167,-0.39167 0.8625,-0.5875 1.4125,-0.5875h13.975c0.55,0 1.02083,0.19583 1.4125,0.5875c0.39167,0.39167 0.5875,0.8625 0.5875,1.4125v10c0,0.55 -0.19583,1.02083 -0.5875,1.4125c-0.39167,0.39167 -0.8625,0.5875 -1.4125,0.5875h-13.975c-0.55,0 -1.02083,-0.19583 -1.4125,-0.5875c-0.39167,-0.39167 -0.5875,-0.8625 -0.5875,-1.4125zM232.9875,185h3.325v-10h-3.325zM238.3125,185h3.325v-10h-3.325zM243.6375,185h3.325v-10h-3.325z"/></g></g></svg>