<svg version="1.1" xmlns="http://www.w3.org/2000/svg" xmlns:xlink="http://www.w3.org/1999/xlink" width="98.87622" height="98.87622" viewBox="0,0,98.87622,98.87622"><g transform="translate(-190.56189,-130.56189)"><g data-paper-data="{&quot;isPaintingLayer&quot;:true}" stroke="none" stroke-linecap="butt" stroke-linejoin="miter" stroke-miterlimit="10" stroke-dasharray="" stroke-dashoffset="0" style="mix-blend-mode: normal"><path d="M190.56189,180c0,-27.30392 22.13419,-49.43811 49.43811,-49.43811c27.30392,0 49.43811,22.13419 49.43811,49.43811c0,27.30392 -22.13419,49.43811 -49.43811,49.43811c-27.30392,0 -49.43811,-22.13419 -49.43811,-49.43811z" fill="#ffffff" fill-rule="nonzero" stroke-width="0"/><path d="M258.62869,160.89107c0.50886,-2.94937 1.25549,-4.80401 2.08255,-4.80757h0.00183c1.54229,0.00532 2.79251,6.43725 2.79251,14.37846c0,7.94109 -1.25205,14.37839 -2.79606,14.37839c-0.63296,0 -1.21699,-1.09301 -1.68736,-2.92463c-0.74319,6.70473 -2.28548,11.31397 -4.07081,11.31397c-1.38142,0 -2.62121,-2.76868 -3.45354,-7.13522c-0.56833,8.30432 -1.99868,14.19597 -3.67045,14.19597c-1.04913,0 -2.00567,-2.33464 -2.71379,-6.13606c-0.85158,7.84725 -2.81875,13.34565 -5.11306,13.34565c-2.29419,0 -4.2648,-5.49668 -5.11294,-13.34565c-0.70297,3.80142 -1.6594,6.13606 -2.71391,6.13606c-1.67166,0 -3.09856,-5.89165 -3.67034,-14.19597c-0.83233,4.36655 -2.06857,7.13522 -3.45354,7.13522c-1.78361,0 -3.32761,-4.6074 -4.07077,-11.31397c-0.46688,1.837 -1.05442,2.92463 -1.68742,2.92463c-1.54403,0 -2.79605,-6.4373 -2.79605,-14.37839c0,-7.9412 1.25202,-14.37846 2.79605,-14.37846c0.82885,0 1.57026,1.85996 2.08436,4.80757c0.8236,-5.08567 2.16133,-8.39109 3.67383,-8.39109c1.79587,0 3.35214,4.67472 4.08834,11.4627c0.72039,-4.94042 1.81328,-8.08996 3.03738,-8.08996c1.71531,0 3.17373,6.19456 3.71411,14.83548c1.0159,-4.43037 2.48646,-7.20963 4.11446,-7.20963c1.628,0 3.09856,2.7811 4.11274,7.20963c0.54209,-8.64092 1.99868,-14.83548 3.71411,-14.83548c1.22226,0 2.31344,3.14953 3.03738,8.08996c0.73437,-6.78798 2.29064,-11.4627 4.0865,-11.4627c1.50734,0 2.85026,3.3072 3.67389,8.39109zM212.50015,169.04777c0,-3.54991 0.70995,-6.42845 1.58601,-6.42845c0.87606,0 1.58601,2.87854 1.58601,6.42845c0,3.54979 -0.70995,6.42836 -1.58601,6.42836c-0.87606,0 -1.58601,-2.87856 -1.58601,-6.42836zM264.32784,169.04777c0,-3.54991 0.70984,-6.42845 1.58595,-6.42845c0.8761,0 1.58606,2.87854 1.58606,6.42845c0,3.54979 -0.70996,6.42836 -1.58606,6.42836c-0.8761,0 -1.58595,-2.87856 -1.58595,-6.42836z" fill="#a238ff" fill-rule="evenodd" stroke-width="1"/></g></g></svg>