<svg version="1.1" xmlns="http://www.w3.org/2000/svg" xmlns:xlink="http://www.w3.org/1999/xlink" width="124.29478" height="124.29478" viewBox="0,0,124.29478,124.29478"><g transform="translate(-177.85261,-117.85261)"><g data-paper-data="{&quot;isPaintingLayer&quot;:true}" fill-rule="nonzero" stroke-linecap="butt" stroke-linejoin="miter" stroke-miterlimit="10" stroke-dasharray="" stroke-dashoffset="0" style="mix-blend-mode: normal"><path d="M177.85261,242.14739v-124.29478h124.29478v124.29478z" fill="#796dad" stroke="none" stroke-width="0"/><path d="M226.35804,166.21582c5.76965,-4.52023 14.12953,-4.12408 19.43192,1.18847c4.37802,4.37802 5.47507,10.92983 3.00672,16.39474l3.24034,2.53946l9.75152,-9.75152c3.19971,-3.19971 3.19971,-8.38021 0,-11.57992c-2.82387,-2.83403 -7.28316,-3.19971 -10.54383,-0.87357l-0.16252,0.11173c-1.45257,1.04625 -3.48414,0.70089 -4.53039,-0.75168c-1.04625,-1.45257 -0.71105,-3.48414 0.75168,-4.53039l0.16252,-0.11174c5.84075,-4.17487 13.84512,-3.51461 18.92404,1.56431c5.73917,5.73917 5.73917,15.03359 0,20.77276l-9.19284,9.19284l14.37333,11.26503c1.05641,0.83294 1.24941,2.36677 0.41647,3.42319c-0.83294,1.05641 -2.36677,1.24941 -3.42319,0.41647l-60.13435,-47.13232c-1.05641,-0.83294 -1.24941,-2.36677 -0.41647,-3.42319c0.83294,-1.05641 2.36677,-1.24941 3.42319,-0.41647zM243.40288,179.57337c0.58915,-2.66135 -0.17268,-5.53602 -2.20425,-7.56759c-2.54962,-2.55977 -6.36896,-3.06766 -9.42646,-1.55415zM248.80684,196.283c-4.99765,1.4932 -10.63524,0.26411 -14.58664,-3.68729c-3.04735,-3.03719 -4.49992,-7.1308 -4.28661,-11.17361l18.86309,14.87106zM219.34913,173.07236l5.13986,4.05297l-6.27754,6.27754c-3.19971,3.19971 -3.19971,8.38021 0,11.59008c2.82387,2.83403 7.28316,3.19971 10.54383,0.87357l0.16252,-0.11173c1.45257,-1.04625 3.48414,-0.70089 4.53039,0.75168c1.04625,1.45257 0.71105,3.48414 -0.75168,4.53039l-0.16252,0.11173c-5.84075,4.17487 -13.84512,3.51461 -18.92404,-1.56431c-5.73917,-5.73917 -5.73917,-15.03358 0,-20.77275l5.72901,-5.72902z" fill="none" stroke="#6b629c" stroke-width="5"/><path d="M226.35804,166.21582c5.76965,-4.52023 14.12953,-4.12408 19.43192,1.18847c4.37802,4.37802 5.47507,10.92983 3.00672,16.39474l3.24034,2.53946l9.75152,-9.75152c3.19971,-3.19971 3.19971,-8.38021 0,-11.57992c-2.82387,-2.83403 -7.28316,-3.19971 -10.54383,-0.87357l-0.16252,0.11173c-1.45257,1.04625 -3.48414,0.70089 -4.53039,-0.75168c-1.04625,-1.45257 -0.71105,-3.48414 0.75168,-4.53039l0.16252,-0.11174c5.84075,-4.17487 13.84512,-3.51461 18.92404,1.56431c5.73917,5.73917 5.73917,15.03359 0,20.77276l-9.19284,9.19284l14.37333,11.26503c1.05641,0.83294 1.24941,2.36677 0.41647,3.42319c-0.83294,1.05641 -2.36677,1.24941 -3.42319,0.41647l-60.13435,-47.13232c-1.05641,-0.83294 -1.24941,-2.36677 -0.41647,-3.42319c0.83294,-1.05641 2.36677,-1.24941 3.42319,-0.41647zM243.40288,179.57337c0.58915,-2.66135 -0.17268,-5.53602 -2.20425,-7.56759c-2.54962,-2.55977 -6.36896,-3.06766 -9.42646,-1.55415zM248.80684,196.283c-4.99765,1.4932 -10.63524,0.26411 -14.58664,-3.68729c-3.04735,-3.03719 -4.49992,-7.1308 -4.28661,-11.17361l18.86309,14.87106zM219.34913,173.07236l5.13986,4.05297l-6.27754,6.27754c-3.19971,3.19971 -3.19971,8.38021 0,11.59008c2.82387,2.83403 7.28316,3.19971 10.54383,0.87357l0.16252,-0.11173c1.45257,-1.04625 3.48414,-0.70089 4.53039,0.75168c1.04625,1.45257 0.71105,3.48414 -0.75168,4.53039l-0.16252,0.11173c-5.84075,4.17487 -13.84512,3.51461 -18.92404,-1.56431c-5.73917,-5.73917 -5.73917,-15.03358 0,-20.77275l5.72901,-5.72902z" fill="#110661" stroke="#300661" stroke-width="0"/></g></g></svg>