<svg version="1.1" xmlns="http://www.w3.org/2000/svg" xmlns:xlink="http://www.w3.org/1999/xlink" width="154.87622" height="154.87622" viewBox="0,0,154.87622,154.87622"><g transform="translate(-162.56189,-102.56189)"><g data-paper-data="{&quot;isPaintingLayer&quot;:true}" fill-rule="nonzero" stroke="none" stroke-linecap="butt" stroke-linejoin="miter" stroke-miterlimit="10" stroke-dasharray="" stroke-dashoffset="0" style="mix-blend-mode: normal"><path d="M162.56189,180c0,-42.76789 34.67022,-77.43811 77.43811,-77.43811c42.76789,0 77.43811,34.67022 77.43811,77.43811c0,42.76789 -34.67022,77.43811 -77.43811,77.43811c-42.76789,0 -77.43811,-34.67022 -77.43811,-77.43811z" fill="#ffffff" stroke-width="0"/><path d="M240,125.85c-0.2,0 -0.3,0 -0.5,-0.1c0.2,0.1 0.4,0.1 0.5,0.1z" fill="#231f20" stroke-width="1"/><g fill="#000000" stroke-width="1"><path d="M226.3,194.45c-0.1,-0.1 -0.1,-0.1 -0.1,-0.1l-5.6,6c-0.1,-0.1 -0.3,-0.3 -0.4,-0.4c-5.2,-5.1 -8.3,-12.2 -8.3,-20c0,-7.8 3.2,-14.9 8.3,-20c5.1,-5.1 12.2,-8.3 20,-8.3c5.1,0 9.9,1.3 14,3.7l-4,7.2c-2.9,-1.7 -6.3,-2.7 -10,-2.7c-11.1,0 -20.1,9 -20.1,20.1c0,5.7 2.3,10.8 6.2,14.5z"/><path d="M268.4,179.95c0,7.8 -3.2,14.9 -8.3,20c-5.1,5.1 -12.2,8.3 -20,8.3c-4.8,0 -9.3,-1.2 -13.3,-3.3l4,-7.2v0c2.8,1.5 5.9,2.3 9.3,2.3c11,0 20,-9 20,-20.1c0,-5.3 -2.1,-10.2 -5.5,-13.8l5.6,-6c5.1,5.1 8.2,12.1 8.2,19.8z"/></g><path d="M224.7,179.95c0,-8.5 6.9,-15.4 15.4,-15.4v0c8.5,0 15.4,6.9 15.4,15.4v0c0,8.5 -6.9,15.4 -15.4,15.4v0c-8.5,0 -15.4,-6.9 -15.4,-15.4zM225.4,179.95c0,8.1 6.6,14.7 14.7,14.7v0c8.1,0 14.7,-6.6 14.7,-14.7v0c0,-8.1 -6.6,-14.7 -14.7,-14.7v0c-8.1,0 -14.7,6.6 -14.7,14.7z" fill="#000000" stroke-width="1"/><path d="M242.5,179.95c0,1.3 -1.1,2.4 -2.4,2.4c-1.3,0 -2.4,-1.1 -2.4,-2.4c0,-1.3 1.1,-2.4 2.4,-2.4c1.4,0 2.4,1.1 2.4,2.4z" fill="#000000" stroke-width="1"/><g fill="#000000" stroke-width="1"><path d="M214,206.15c-6.8,-6.7 -10.9,-16 -10.9,-26.2c0,-10.2 4.2,-19.5 10.9,-26.2c6.7,-6.7 16,-10.9 26.2,-10.9c6.6,0 12.8,1.8 18.2,4.8l-4,7.4c-4.2,-2.4 -9,-3.8 -14.2,-3.8c-15.9,0 -28.7,12.8 -28.7,28.7c0,8.2 3.4,15.5 8.8,20.7l-5.7,6.2c-0.3,-0.2 -0.5,-0.5 -0.6,-0.7z"/><path d="M277.3,179.95c0,10.2 -4.2,19.5 -10.9,26.2c-6.7,6.7 -16,10.9 -26.2,10.9c-6.4,0 -12.4,-1.6 -17.7,-4.5l4.1,-7.3c4,2.2 8.6,3.4 13.5,3.4c15.9,0 28.7,-12.9 28.7,-28.7c0,-7.8 -3.2,-14.9 -8.3,-20.1l5.8,-6.1c0,-0.1 0,0 0,0c6.7,6.7 10.9,16 11,26.2z"/></g><g fill="#000000" stroke-width="1"><path d="M286.1,179.85c0,12.7 -5.1,24.2 -13.4,32.5c-8.3,8.4 -19.8,13.5 -32.5,13.5c-8,0 -15.5,-2 -22,-5.6l4.1,-7.3c5.3,2.9 11.4,4.5 17.9,4.5c20.7,0 37.5,-16.8 37.5,-37.5c0,-10.4 -4.3,-19.8 -11.1,-26.6l5.7,-6.2c0.1,0.1 0.2,0.2 0.3,0.3c8.3,8.3 13.4,19.8 13.5,32.4z"/><path d="M207.7,212.45c-8.3,-8.3 -13.5,-19.8 -13.5,-32.5c0,-12.7 5.1,-24.2 13.2,-32.5c8.3,-8.4 19.8,-13.5 32.5,-13.5c8.2,0 15.9,2.2 22.5,5.9l-4,7.4c-5.4,-3 -11.7,-4.8 -18.4,-4.8c-20.7,0 -37.5,16.8 -37.5,37.5c0,10.7 4.5,20.4 11.7,27.2l-5.7,6.2c-0.3,-0.3 -0.6,-0.6 -0.8,-0.9z"/></g><g stroke-width="1"><path d="M202.9,219.45" fill="#231f20"/><path d="M214,227.55" fill="#231f20"/><path d="M294.2,180.05c0,29.9 -24.3,54.2 -54.2,54.2c-9.4,0 -18.3,-2.5 -26,-6.7l3.9,-6.9c6.6,3.6 14.1,5.7 22.2,5.7c25.6,0 46.4,-20.8 46.4,-46.4c0,-13 -5.3,-24.7 -13.9,-33.1l5.2,-5.6c10.1,9.8 16.4,23.6 16.4,38.8z" fill="#000000"/></g><path d="M266.5,132.75l-3.7,6.7c-6.7,-3.7 -14.5,-5.9 -22.7,-5.9c-25.6,0 -46.4,20.8 -46.4,46.4c0,13.3 5.6,25.2 14.6,33.7l-5.4,5.8c-10.5,-9.9 -17.1,-23.9 -17.1,-39.4v-0.5v0c0.3,-29.7 24.5,-53.7 54.2,-53.7h0.9c9.3,0.1 18,2.6 25.6,6.9z" fill="#000000" stroke-width="1"/></g></g></svg>