<svg version="1.1" xmlns="http://www.w3.org/2000/svg" xmlns:xlink="http://www.w3.org/1999/xlink" width="319.84693" height="321.70444" viewBox="0,0,319.84693,321.70444"><defs><linearGradient x1="146.60019" y1="254.63232" x2="333.43855" y2="254.63232" gradientUnits="userSpaceOnUse" id="color-1"><stop offset="0" stop-color="#9a9a9a"/><stop offset="1" stop-color="#606060"/></linearGradient><radialGradient cx="184.55666" cy="104.53959" r="41.86936" gradientUnits="userSpaceOnUse" id="color-2"><stop offset="0" stop-color="#e9e9e9"/><stop offset="1" stop-color="#fcfcfc"/></radialGradient><linearGradient x1="179.91715" y1="53.71002" x2="199.45907" y2="48.46525" gradientUnits="userSpaceOnUse" id="color-3"><stop offset="0" stop-color="#e2e2e2"/><stop offset="1" stop-color="#8b8b8b"/></linearGradient><linearGradient x1="195.67297" y1="50.95662" x2="181.50006" y2="54.76043" gradientUnits="userSpaceOnUse" id="color-4"><stop offset="0" stop-color="#ffcbfe"/><stop offset="1" stop-color="#d6cbff"/></linearGradient><linearGradient x1="143.12504" y1="63.58449" x2="162.66695" y2="58.33973" gradientUnits="userSpaceOnUse" id="color-5"><stop offset="0" stop-color="#e2e2e2"/><stop offset="1" stop-color="#8b8b8b"/></linearGradient><linearGradient x1="147.65522" y1="63.84389" x2="161.82812" y2="60.0401" gradientUnits="userSpaceOnUse" id="color-6"><stop offset="0" stop-color="#ffcbfe"/><stop offset="1" stop-color="#d6cbff"/></linearGradient><linearGradient x1="150.2932" y1="89.88186" x2="206.43222" y2="74.81493" gradientUnits="userSpaceOnUse" id="color-7"><stop offset="0" stop-color="#e2e2e2"/><stop offset="1" stop-color="#8b8b8b"/></linearGradient><linearGradient x1="175.96172" y1="86.01877" x2="182.45751" y2="82.84662" gradientUnits="userSpaceOnUse" id="color-8"><stop offset="0" stop-color="#ffcbfe"/><stop offset="1" stop-color="#d6cbff"/></linearGradient><linearGradient x1="158.59267" y1="132.55622" x2="170.98854" y2="129.22936" gradientUnits="userSpaceOnUse" id="color-9"><stop offset="0" stop-color="#ff9c00"/><stop offset="1" stop-color="#ff7b00"/></linearGradient><linearGradient x1="178.08193" y1="128.04579" x2="193.20836" y2="123.98606" gradientUnits="userSpaceOnUse" id="color-10"><stop offset="0" stop-color="#ff9c00"/><stop offset="1" stop-color="#ff7b00"/></linearGradient></defs><g transform="translate(-80.07655,-19.14778)"><g data-paper-data="{&quot;isPaintingLayer&quot;:true}" fill-rule="nonzero" stroke-linejoin="miter" stroke-miterlimit="10" stroke-dasharray="" stroke-dashoffset="0" style="mix-blend-mode: normal"><path d="M354.75394,236.5275c0.46156,0.86029 1.78215,1.05795 2.27663,1.87105l1.33207,-1.33208l0.96751,-1.10572l0.14686,-0.95465v-0.53056l-1.25575,-0.62788l-3.74122,-1.45492c0.09967,2.01206 0.19286,3.98373 0.27389,4.13476zM398.88133,136.46923l-1.02847,3.42822l-1.25444,2.10973l-0.7869,2.32494l-3.0854,4.79952l-1.00316,0.94297l-0.6378,1.22013l-2.74258,3.08541l-1.23855,0.84584l-0.90895,1.193l-5.14234,4.11387l-1.18297,0.5422l-0.93145,0.90873l-4.11387,2.39976l-0.71739,0.2087l-0.57651,0.47523l-7.19927,3.42822l-1.2315,0.24892l-1.07252,0.65442l-5.48516,1.71411l-0.5178,0.03001l-0.45765,0.24408l-8.22774,2.05693h-1.07306l-1.0007,0.38737l-8.22775,1.02847l-0.6812,-0.08257l-0.65702,0.1979l-7.19927,0.34282l-0.41843,-0.08368l-0.41397,0.10349h-9.41186l-4.61247,0.46125l-2.87164,0.75569l-0.09925,0.0579l-1.25479,1.25479l-0.24231,0.41539l-0.01857,0.06036l0.81898,0.81898l3.2015,1.42289l0.70896,0.55387l0.86606,0.24358l2.44052,1.39458l2.14285,0.45918l1.09767,0.53848l1.21607,0.12668l6.96236,2.53177l4.20637,1.20182l0.50177,0.28948l0.5765,0.05671l4.79952,1.71411l0.1807,0.12046l0.21555,0.02647l8.79755,3.38368l6.39718,2.35685l0.10555,0.07189l0.12674,0.01557l8.91339,3.42823l0.02743,0.01926l0.03324,0.00421l6.17081,2.39976l0.67554,0.47807l0.80789,0.17953l4.11387,2.05694l1.20773,1.0352l1.46603,0.61728l2.74258,2.05694l0.79429,0.97758l1.08008,0.64805l2.74258,2.74258l1.44734,2.41224l1.83076,2.13589l1.37129,2.74258l0.41808,1.88135l0.90694,1.70051l0.68565,2.74259v2.15434l0.5225,2.09002v6.17081l-0.32829,1.31318l0.1248,1.34783l-0.68565,4.45669l-0.70424,1.67677l-0.2065,1.80689l-1.02847,2.74258l-1.00155,1.45225l-0.54424,1.67807l-1.71412,2.74258l-1.02201,0.98551l-0.64786,1.26334l-2.39976,2.74258l-0.48926,0.33976l-0.30647,0.51078l-2.74258,2.74258l-0.45123,0.27074l-0.29677,0.43455l-3.0854,2.74258l-0.91431,0.47794l-0.67647,0.77896l-3.42823,2.39976l-0.68942,0.26403l-0.52843,0.51553l-4.11387,2.39976l-0.81933,0.23835l-0.6649,0.53481l-8.91339,4.11387l-1.16879,0.22167l-1.01822,0.61518l-3.88214,1.1945l-3.89562,1.49831l-1.07876,0.13248l-0.959,0.51146l-6.57358,1.64339l-2.11939,0.60554l-0.49095,0.01637l-0.4383,0.22179l-7.5421,1.71411l-0.23443,-0.00504l-0.21191,0.10038l-9.87633,1.97527l-7.82375,1.95594h-0.3553l-0.31987,0.15466l-8.22775,1.71411l-0.43716,-0.01731l-0.40269,0.17101l-5.7493,0.90778l-1.99188,0.49797h-0.62885l-0.57428,0.25622l-5.82799,1.02846l-0.08559,-0.00602l-0.07868,0.03421l-5.48143,0.91357l-4.80715,1.20179h-0.12505l-0.11114,0.0573l-5.48847,1.2914l-5.14267,1.42852l-5.83963,2.15145l-0.42005,0.04555l-0.36,0.22114l-6.25665,1.97579l-6.37659,2.23181l-13.69374,5.21666l-6.38654,2.87394l-0.51896,0.0933l-0.4325,0.30161l-7.19927,2.74258l-0.09828,0.01175l-0.0818,0.05572l-6.28769,2.31652l-3.20467,1.28186l-0.66105,0.09015l-0.56848,0.34921l-6.51363,2.05693l-0.1296,0.00791l-0.11161,0.06636l-6.85645,2.05694l-0.30625,0.01425l-0.26871,0.1476l-6.51363,1.71411l-0.5366,0.00663l-0.485,0.22973l-6.67392,1.33479l-5.98909,1.33091l-0.9618,-0.02531l-0.90193,0.335l-9.25621,1.02847l-0.48976,-0.06619l-0.47207,0.14628l-6.17081,0.34283l-0.48834,-0.09366l-0.48239,0.12059h-11.99879l-0.21804,-0.05451l-0.21933,0.04904l-13.71291,-0.34282l-0.92342,-0.25554l-0.95208,0.10749l-5.14234,-0.68565l-1.2022,-0.47673l-1.29255,-0.04309l-4.79951,-1.37129l-0.33768,-0.19481l-0.38869,-0.0299l-2.05694,-0.68564l-1.32543,-0.84346l-1.52049,-0.39533l-7.5421,-4.11387l-1.14148,-1.05137l-1.41077,-0.6466l-1.71411,-1.37129l-0.90895,-1.193l-1.23855,-0.84584l-2.74258,-3.0854l-0.92734,-1.77405l-1.35617,-1.47241l-2.05693,-3.77105l-0.44613,-1.71591l-0.91683,-1.5175l-1.37129,-4.4567l-0.13984,-2.6104l-0.63403,-2.5361v-1.81707l-0.30406,-4.56095l0.10571,-0.58621l-0.14447,-0.57787v-6.17081l0.42275,-1.69098l-0.08291,-1.74105l0.68565,-3.42822l1.34843,-2.84669l0.97176,-2.99626l1.71412,-2.74258l1.43789,-1.38654l1.02771,-1.71285l1.02847,-1.02847l1.08008,-0.64805l0.79429,-0.97758l2.74258,-2.05694l1.46603,-0.61727l1.20773,-1.0352l2.99377,-1.49689l1.8164,-1.03794l4.81092,-2.88655l6.34423,-4.00689l0.84396,-0.27812l0.67468,-0.5783l3.42823,-1.71411l0.29711,-0.06603l0.23767,-0.19013l8.08649,-3.70631l8.43049,-4.04663l0.70316,-0.1444l0.5875,-0.4125l4.45669,-1.71411l0.19301,-0.02371l0.16153,-0.10827l8.57057,-3.08541l0.213,-0.02149l0.18061,-0.11494l4.11387,-1.37129l0.33976,-0.02613l0.29422,-0.17191l6.79652,-1.98232l-0.73895,-0.28605l-1.20997,-0.01891l-5.14234,-1.37129l-1.12032,-0.62018l-1.26417,-0.2039l-2.09638,-0.89845l-4.14862,-1.59563l-0.96115,-0.67485l-1.13663,-0.29552l-3.77105,-2.05694l-0.27112,-0.24972l-0.35264,-0.10733l-1.71411,-1.02847l-0.75877,-0.75877l-0.98152,-0.4337l-3.0854,-2.39976l-0.68216,-0.87035l-0.94824,-0.56895l-3.42822,-3.42822l-1.25585,-2.09308l-1.66754,-1.78254l-1.71411,-3.0854l-0.42457,-1.58248l-0.87964,-1.38229l-0.34282,-1.02846l-0.14279,-1.85622l-0.64822,-1.74521l-0.34282,-3.08541l0.29725,-2.1996l-0.2284,-2.20782l0.34282,-2.39976l0.34663,-0.8508v-0.9187l0.24182,-0.96729l0.60398,-3.01988l1.00062,-2.11243l0.50706,-2.28177l2.74258,-5.48517l0.71967,-0.8396l0.37193,-1.04141l2.56615,-3.84921l2.57588,-4.1858l0.99481,-0.97271l0.62222,-1.24444l6.17081,-7.19927l0.55958,-0.39712l0.35304,-0.58839l7.19928,-7.19928l0.24841,-0.14905l0.15699,-0.24348l5.48516,-5.14234l0.71802,-0.3999l0.507,-0.64686l2.85265,-2.21873l5.94429,-4.95358l0.76065,-0.36721l0.56061,-0.63179l6.43653,-4.40394l3.3517,-2.34619l0.39704,-0.15206l0.29368,-0.30744l6.51363,-4.11387l0.19558,-0.06446l0.14561,-0.14561l6.85646,-4.11387l0.96912,-0.29495l0.793,-0.63034l3.47612,-1.58006l6.56669,-3.28335l0.86745,-0.19277l0.72888,-0.50829l7.19928,-2.74258l0.13594,-0.01625l0.11348,-0.0766l3.77105,-1.37129l0.38278,-0.03987l0.32792,-0.20144l5.89066,-1.86021l2.82166,-1.12866l1.19277,-0.16266l1.06219,-0.5665l6.85645,-1.71411h0.71327l0.65412,-0.2844l6.17081,-1.02847l0.58414,0.04673l0.55154,-0.19799l2.9324,-0.29324l6.02142,-0.95076l0.46182,0.04092l0.43554,-0.15891l6.46333,-0.68035l3.03513,-0.33723l0.51547,0.06966l0.4973,-0.15251l6.48816,-0.34149l6.14533,-0.3414l0.48834,0.09365l0.48239,-0.12059h27.42582l1.07281,0.2682l1.09779,-0.13306l5.02447,0.62806l4.33643,0.30975l0.60004,0.19638l0.62801,-0.06497l1.16857,0.16694h35.09552l1.22197,0.30549l1.2529,-0.12961l1.16857,0.16694h0.12761l0.17013,0.04253l0.93345,0.13335l0.60399,0.24608l1.72446,-0.08212l3.11033,0.62206c2.99843,0.53854 5.73175,1.84087 7.99139,3.69839l0.47759,0.22623l0.10411,0.13385l4.34387,0.66829l0.88659,0.37237l0.9615,0.01503l5.14234,1.37129l2.91751,1.61505l3.07339,1.29406l2.74258,2.05693l1.74601,2.14893l2.09055,1.81548l2.39976,3.42823l1.14041,2.97772l1.50053,2.8135l0.68565,2.74258v2.72586l0.48374,2.68259l-0.34282,5.14234l-0.60724,1.88564z" fill="#4453b5" stroke="none" stroke-width="0.5" stroke-linecap="butt"/><path d="M226.47785,168.41242l20.56936,4.11387l15.42702,11.31315l14.74138,4.79951l17.82678,3.08541l26.39734,9.25621l4.4567,10.97033l-4.11387,17.48396l5.48516,7.88492l6.17081,10.6275l-3.77105,8.57057l-6.85645,17.82678l4.11388,18.51243l-3.08541,19.54089l-9.59903,11.31314l-13.02726,8.22775l-5.48516,-2.39976l-10.28468,-1.37129l-14.05573,1.02847l-4.11388,3.42822l-16.45548,6.85645l-15.42702,1.37129l-7.19928,-5.82799l-10.28468,-3.0854l-11.31314,-6.85645l-15.76985,-4.11387l-26.74017,-5.48517l-3.42823,-4.79951l0.68565,-14.74138l-12.34161,-27.76864l-2.39976,-26.05453l6.85645,-16.11266l16.79831,-19.19807l-1.71411,-10.28468l14.39855,-13.37008l14.39855,-8.22774l10.97033,-4.79952z" fill="url(#color-1)" stroke="#000000" stroke-width="0" stroke-linecap="round"/><path d="M213.91572,58.68136c1.4727,-5.03005 5.94495,-8.449 11.05135,-8.94248l2.1957,-0.10723c5.09793,-0.58994 9.50212,-4.08936 10.87901,-9.15178l0.47555,-0.43546c1.41079,-1.27888 3.22019,-1.85161 4.95753,-1.39441c3.01956,0.79841 4.67564,4.43698 3.69941,8.11411c-0.05099,0.19954 -0.11031,0.3897 -0.16962,0.57986l-0.30912,1.01225c-1.47481,5.54939 -6.12506,9.67904 -11.80985,10.48771l-2.35136,0.15481c-5.6902,0.69742 -10.41069,4.7322 -11.98549,10.24444zM229.78011,93.42446c6.4909,24.18495 -8.26556,49.16462 -32.95978,55.7922c-24.69964,6.62903 -49.98055,-7.60516 -56.47145,-31.79011c-6.4909,-24.18495 8.26014,-49.16316 32.9652,-55.79365c24.69422,-6.62758 49.97513,7.60661 56.46603,31.79156z" fill="#ffffff" stroke="none" stroke-width="1" stroke-linecap="butt"/><path d="M221.47559,82.04508c-3.39469,16.28493 -16.12606,30.30729 -33.92887,35.08532c-17.01182,4.56573 -34.23854,-0.49864 -45.41771,-11.76862" fill="none" stroke="url(#color-2)" stroke-width="6.5" stroke-linecap="butt"/><path d="M217.53189,60.85876c6.10994,22.7655 -7.652,46.23533 -30.73715,52.43106c-23.07972,6.19428 -46.74378,-7.23094 -52.85372,-29.99644c-6.10849,-22.76007 7.65201,-46.23533 30.73173,-52.4296c23.07972,-6.19427 46.75065,7.23491 52.85914,29.99499z" fill="#1d0058" stroke="none" stroke-width="1" stroke-linecap="butt"/><path d="M195.71279,34.78801c-0.78512,5.44956 -0.26821,12.54762 1.73256,20.00248c0.807,3.00686 1.79621,5.84867 2.90499,8.44348l-20.46081,-9.62689c0.43178,-0.68507 0.86899,-1.37159 1.3239,-2.05706c4.62509,-7.0261 9.72678,-12.92558 14.48836,-17.0843z" data-paper-data="{&quot;index&quot;:null}" fill="url(#color-3)" stroke="none" stroke-width="1" stroke-linecap="butt"/><path d="M192.95351,41.04038c-0.56602,3.95036 -0.19425,9.10104 1.25689,14.50798c0.58453,2.17794 1.3004,4.23933 2.10558,6.11412l-14.83627,-6.97789c0.30851,-0.49517 0.62786,-0.99325 0.95804,-1.49424c3.35628,-5.08837 7.05171,-9.36751 10.51031,-12.38663z" data-paper-data="{&quot;index&quot;:null}" fill="url(#color-4)" stroke="none" stroke-width="1" stroke-linecap="butt"/><path d="M139.36776,49.58498c6.20942,1.21426 13.57403,3.76796 21.09559,7.53407c0.737,0.36558 1.46461,0.73949 2.17598,1.11775l-12.89101,18.57805c-0.36209,-2.95812 -0.93457,-5.88667 -1.71309,-8.76338c-2.00078,-7.45486 -5.10738,-13.85789 -8.51561,-18.182z" fill="url(#color-5)" stroke="none" stroke-width="1" stroke-linecap="butt"/><path d="M144.93029,53.691c4.50553,0.88167 9.84695,2.73545 15.29997,5.45952c0.53666,0.26834 1.05707,0.54103 1.57748,0.81373l-9.35264,13.47567c-0.24464,-2.03684 -0.65566,-4.17424 -1.24019,-6.35219c-1.45114,-5.40694 -3.70289,-10.05305 -6.17082,-13.18914z" fill="url(#color-6)" stroke="none" stroke-width="1" stroke-linecap="butt"/><path d="M206.43222,74.81493c4.26183,15.8795 -4.85111,32.13096 -20.34596,36.28956c-15.50567,4.16151 -31.53121,-5.34314 -35.79304,-21.22264c-4.26329,-15.88492 4.84967,-32.13639 20.34992,-36.29644c15.50567,-4.1615 31.52578,5.3446 35.78907,21.22952z" fill="url(#color-7)" stroke="none" stroke-width="1" stroke-linecap="butt"/><path d="M157.11955,102.41882c-1.50174,-1.65151 -2.81455,-3.46541 -3.91405,-5.40805l10.03028,-2.81395zM150.90351,91.89607c-0.72385,-2.11289 -1.21682,-4.29793 -1.47027,-6.51695l10.87787,0.49565zM159.05214,77.95946l-9.79398,3.02351c0.06194,-1.93327 0.30822,-3.8289 0.73092,-5.67314z" fill="#b5b5b5" stroke="none" stroke-width="1" stroke-linecap="butt"/><path d="M197.39486,85.029l10.09677,-2.58786c0.02095,2.23211 -0.20721,4.45957 -0.68023,6.64108zM195.75962,76.36089l9.16644,-5.88107c0.89326,2.04713 1.56066,4.18555 1.99038,6.37736zM199.40462,62.0474c1.29989,1.40082 2.46294,2.92267 3.47328,4.54479l-9.98632,2.28524z" data-paper-data="{&quot;index&quot;:null}" fill="#696969" stroke="none" stroke-width="1" stroke-linecap="butt"/><path d="M182.07105,82.0559l0.02974,0.06753c0.96178,1.96053 0.28435,4.26228 -1.513,5.13961c-1.79193,0.87587 -4.02101,-0.00692 -4.97883,-1.97433c-0.34361,-0.69349 -0.48927,-1.46834 -0.42094,-2.23927l0.23083,-0.26524c0.96756,0.15147 1.95138,0.16887 2.92369,0.05168c1.34178,-0.15103 2.54121,-0.50778 3.40156,-0.9594z" fill="url(#color-8)" stroke="none" stroke-width="1" stroke-linecap="butt"/><path d="M161.66985,78.73214l-1.59946,-5.95955l11.85409,-3.18147l1.59947,5.95955z" fill="#ffffff" stroke="none" stroke-width="1" stroke-linecap="butt"/><path d="M160.24342,73.41731c-0.87854,-3.27342 1.06289,-6.63925 4.33631,-7.51779c3.27342,-0.87854 6.63925,1.06289 7.51779,4.33631c0.87854,3.27342 -1.06289,6.63925 -4.33631,7.51779c-3.27342,0.87854 -6.63925,-1.06289 -7.51779,-4.33631z" fill="#ffffff" stroke="none" stroke-width="1" stroke-linecap="butt"/><path d="M161.65967,78.69422c-0.87854,-3.27342 1.06289,-6.63924 4.33631,-7.51778c3.27342,-0.87854 6.63924,1.06289 7.51778,4.33631c0.87854,3.27342 -1.06289,6.63925 -4.33631,7.51779c-3.27342,0.87854 -6.63924,-1.06289 -7.51778,-4.33631z" fill="#ffffff" stroke="none" stroke-width="1" stroke-linecap="butt"/><path d="M164.99214,76.3304l-0.76629,-2.85517l5.67241,-1.5224l0.76629,2.85517z" fill="#4a4a4a" stroke="none" stroke-width="1" stroke-linecap="butt"/><path d="M164.30873,73.78405c-0.32548,-1.03061 -0.05911,-2.15671 0.69359,-2.9323c0.7527,-0.77559 1.87032,-1.07554 2.91022,-0.78106c1.0399,0.29448 1.83431,1.13588 2.0686,2.19097c0.3411,1.53603 -0.58788,3.06826 -2.10755,3.47612c-1.51967,0.40786 -3.09101,-0.45332 -3.56485,-1.95373z" fill="#4a4a4a" stroke="none" stroke-width="1" stroke-linecap="butt"/><path d="M164.98778,76.31415c-0.32548,-1.03061 -0.05912,-2.15671 0.69358,-2.93229c0.7527,-0.77559 1.87033,-1.07554 2.91022,-0.78106c1.0399,0.29448 1.83431,1.13587 2.0686,2.19096c0.3411,1.53603 -0.58789,3.06827 -2.10756,3.47613c-1.51967,0.40786 -3.09101,-0.45332 -3.56485,-1.95373z" fill="#4a4a4a" stroke="none" stroke-width="1" stroke-linecap="butt"/><path d="M166.83958,71.33335c0.28187,1.05025 -0.34102,2.13014 -1.39127,2.41201c-1.05024,0.28187 -2.13014,-0.34102 -2.41201,-1.39127c-0.28187,-1.05025 0.34102,-2.13014 1.39126,-2.41201c1.05024,-0.28187 2.13014,0.34102 2.41201,1.39127z" fill="#ffffff" stroke="none" stroke-width="1" stroke-linecap="butt"/><path d="M178.52455,74.20858l-1.59946,-5.95955l11.8541,-3.18148l1.59946,5.95956z" data-paper-data="{&quot;index&quot;:null}" fill="#ffffff" stroke="none" stroke-width="1" stroke-linecap="butt"/><path d="M184.61591,73.23004c-3.27342,0.87854 -6.63925,-1.06289 -7.51779,-4.33631c-0.87854,-3.27342 1.06289,-6.63924 4.33631,-7.51778c3.27342,-0.87854 6.63924,1.06289 7.51778,4.33631c0.87854,3.27342 -1.06289,6.63925 -4.33631,7.51779z" data-paper-data="{&quot;index&quot;:null}" fill="#ffffff" stroke="none" stroke-width="1" stroke-linecap="butt"/><path d="M186.03216,78.50697c-3.27342,0.87854 -6.63925,-1.06289 -7.51779,-4.33631c-0.87854,-3.27342 1.0629,-6.63924 4.33632,-7.51778c3.27491,-0.87894 6.64227,1.06337 7.52121,4.33829c0.87894,3.27492 -1.06338,6.64228 -4.33829,7.52122z" data-paper-data="{&quot;index&quot;:null}" fill="#ffffff" stroke="none" stroke-width="1" stroke-linecap="butt"/><path d="M180.62784,72.134l-0.76629,-2.85516l5.67783,-1.52385l0.76629,2.85517z" data-paper-data="{&quot;index&quot;:null}" fill="#4a4a4a" stroke="none" stroke-width="1" stroke-linecap="butt"/><path d="M183.54527,71.66463c-1.56789,0.4208 -3.18004,-0.5091 -3.60084,-2.07699c-0.4208,-1.56789 0.5091,-3.18004 2.07699,-3.60084c1.56789,-0.4208 3.18004,0.5091 3.60084,2.07699c0.4208,1.56789 -0.5091,3.18004 -2.07699,3.60084z" data-paper-data="{&quot;index&quot;:null}" fill="#4a4a4a" stroke="none" stroke-width="1" stroke-linecap="butt"/><path d="M184.22286,74.1893c-1.03062,0.32547 -2.15671,0.05912 -2.9323,-0.69358c-0.77559,-0.75271 -1.07554,-1.87033 -0.78106,-2.91022c0.29448,-1.0399 1.13588,-1.83431 2.19096,-2.0686c1.53603,-0.3411 3.06826,0.58789 3.47612,2.10756c0.40786,1.51967 -0.45332,3.09101 -1.95372,3.56485z" data-paper-data="{&quot;index&quot;:null}" fill="#4a4a4a" stroke="none" stroke-width="1" stroke-linecap="butt"/><path d="M180.08496,65.73985c1.05024,-0.28187 2.13014,0.34102 2.41201,1.39127c0.28187,1.05025 -0.34102,2.13014 -1.39127,2.41201c-1.05024,0.28187 -2.13014,-0.34102 -2.41201,-1.39126c-0.28187,-1.05025 0.34102,-2.13014 1.39127,-2.41201z" data-paper-data="{&quot;index&quot;:null}" fill="#ffffff" stroke="none" stroke-width="1" stroke-linecap="butt"/><path d="M194.85676,83.42764c3.70979,7.00288 1.32475,15.68353 -5.44228,19.80788c-6.76702,4.12435 -15.57543,2.26584 -20.0994,-4.24082l0.87425,-0.11847c9.43389,-2.1659 17.92842,-7.29071 24.24344,-14.62622z" fill="#7a0200" stroke="none" stroke-width="1" stroke-linecap="butt"/><path d="M189.13145,102.64966c-0.65959,-0.85321 -1.14267,-1.82922 -1.42106,-2.8711c-1.24031,-4.62136 1.77347,-9.44938 6.73615,-10.78129c0.44426,-0.11924 0.89182,-0.2045 1.32895,-0.26374l0.72035,0.34681c0.47997,5.7223 -2.3479,11.21671 -7.2836,14.15167z" fill="#d30400" stroke="none" stroke-width="1" stroke-linecap="butt"/><path d="M177.80775,96.33787l-0.05034,3.08015l-2.90734,-2.02499zM190.38558,88.40866l0.04433,3.75751l-2.71557,-1.63504z" fill="#ffffff" stroke="none" stroke-width="1" stroke-linecap="butt"/><path d="M217.53189,60.85876c6.10994,22.7655 -7.652,46.23533 -30.73715,52.43106c-23.07972,6.19428 -46.74378,-7.23094 -52.85372,-29.99644c-6.10849,-22.76007 7.65201,-46.23533 30.73173,-52.4296c23.07972,-6.19427 46.75065,7.23491 52.85914,29.99499z" fill="none" stroke="#ffffff" stroke-width="11" stroke-linecap="butt"/><path d="M166.03757,166.70145l-8.72869,-32.52291l23.53482,-6.31642l8.72869,32.52291z" fill="#ffffff" stroke="none" stroke-width="1" stroke-linecap="butt"/><path d="M189.98443,161.79035c1.66344,6.19794 -2.28724,12.64228 -8.82649,14.39733c-6.53925,1.75504 -13.18575,-1.84517 -14.84919,-8.04311c-1.66344,-6.19794 2.28724,-12.64228 8.82649,-14.39732c6.53925,-1.75504 13.18575,1.84517 14.84773,8.03769zM207.63528,155.53722l-8.72869,-32.52291l23.54024,-6.31787l8.72869,32.52291z" fill="#ffffff" stroke="none" stroke-width="1" stroke-linecap="butt"/><path d="M231.58211,150.62612c1.66344,6.19794 -2.28724,12.64228 -8.8265,14.39732c-6.53384,1.75359 -13.18574,-1.84517 -14.84918,-8.0431c-1.66344,-6.19794 2.29265,-12.64373 8.82649,-14.39732c6.53925,-1.75504 13.19117,1.84371 14.85316,8.03623z" fill="#ffffff" stroke="none" stroke-width="1" stroke-linecap="butt"/><path d="M170.98854,129.22936c0.91869,3.42302 -1.11147,6.94268 -4.5345,7.86137c-3.42302,0.91869 -6.94268,-1.11147 -7.86137,-4.53449c-0.91869,-3.42302 1.11147,-6.94269 4.53449,-7.86138c3.42302,-0.91869 6.94269,1.11148 7.86138,4.5345z" fill="url(#color-9)" stroke="none" stroke-width="1" stroke-linecap="butt"/><path d="M180.16526,127.49826c0.2406,0.74144 0.05265,1.55515 -0.48876,2.11596c-0.54141,0.56081 -1.34798,0.77729 -2.09744,0.56293c-0.74946,-0.21436 -1.31958,-0.8246 -1.48255,-1.58688c-0.23471,-1.09779 0.4316,-2.18707 1.51584,-2.47806c1.08424,-0.291 2.20641,0.31827 2.55291,1.38607z" fill="#ff9c00" stroke="none" stroke-width="1" stroke-linecap="butt"/><path d="M195.14,123.47926c0.2406,0.74144 0.05265,1.55514 -0.48877,2.11595c-0.54141,0.56081 -1.34798,0.77729 -2.09744,0.56293c-0.74946,-0.21436 -1.31957,-0.8246 -1.48254,-1.58688c-0.23471,-1.09779 0.4316,-2.18706 1.51583,-2.47806c1.08424,-0.291 2.20641,0.31827 2.55292,1.38607z" fill="#ff7b00" stroke="none" stroke-width="1" stroke-linecap="butt"/><path d="M178.62865,130.08287l-1.09199,-4.06875l15.12643,-4.05972l1.09054,4.06333z" fill="url(#color-10)" stroke="none" stroke-width="1" stroke-linecap="butt"/><path d="M206.59414,193.78129l6.17081,10.28468l-0.34282,5.14234l-14.05573,11.31315l-11.65597,2.39976l-6.85645,-4.11387l3.42823,-5.14234l2.39976,-11.31315l5.82799,-6.85645l10.28468,-2.39976z" fill="none" stroke="#787878" stroke-width="4" stroke-linecap="round"/><path d="M235.73407,224.29252l6.17081,5.14234l-1.71411,11.31315l4.11387,2.05694l1.37129,13.37008l-10.28468,10.6275l-18.51242,3.0854l-4.79952,-6.51363l0.68565,-10.28468l5.82799,-8.91339v-7.5421l3.42823,-8.91339l9.25621,-4.11387z" fill="none" stroke="#6b6b6b" stroke-width="4" stroke-linecap="round"/><path d="M162.37003,299.02786l8.57057,-1.02847l10.97033,1.37129l1.37129,6.17081l7.19928,12.68444" fill="none" stroke="#808080" stroke-width="4" stroke-linecap="round"/><path d="M222.02118,313.08359l12.68444,-0.68565l9.94186,0.34282l12.68444,-6.51363l6.85645,2.39976l-4.79952,6.51363l-5.14234,6.85645l-14.39855,-0.68565l-8.91339,2.74258l-5.82799,-5.48516l-5.48516,-5.14234z" fill="none" stroke="#686868" stroke-width="4" stroke-linecap="round"/><path d="M294.01392,268.51662l2.05694,1.71411l6.17081,3.42823l0.68565,10.97033l-4.45669,8.57057l-7.5421,4.79952l-5.14234,-4.11387l-2.74258,-8.57057l1.37129,-9.59903l7.5421,-5.48516z" fill="none" stroke="#5c5c5c" stroke-width="4" stroke-linecap="round"/><path d="M320.7541,219.15018l-15.42702,-0.34282l-7.19928,-7.5421l-4.45669,-9.94186l2.05694,-7.5421" fill="none" stroke="#555555" stroke-width="4" stroke-linecap="round"/><path d="M341.25452,240.56848c0,-9.66498 7.83502,-17.5 17.5,-17.5c9.66498,0 17.5,7.83502 17.5,17.5c0,9.66498 -7.83502,17.5 -17.5,17.5c-9.66498,0 -17.5,-7.83502 -17.5,-17.5z" fill="#4453b5" stroke="none" stroke-width="0.5" stroke-linecap="butt"/></g></g></svg>