<svg version="1.1" xmlns="http://www.w3.org/2000/svg" xmlns:xlink="http://www.w3.org/1999/xlink" width="124.29478" height="124.29478" viewBox="0,0,124.29478,124.29478"><g transform="translate(-177.85261,-117.85261)"><g data-paper-data="{&quot;isPaintingLayer&quot;:true}" fill-rule="nonzero" stroke-linecap="butt" stroke-linejoin="miter" stroke-miterlimit="10" stroke-dasharray="" stroke-dashoffset="0" style="mix-blend-mode: normal"><path d="M177.85261,242.14739v-124.29478h124.29478v124.29478z" fill="#ffc79f" stroke="none" stroke-width="0"/><path d="M250.01353,168.61938l15.46785,2.28197c1.29168,0.19376 2.35731,1.09792 2.76634,2.33578c0.40903,1.23786 0.07535,2.60488 -0.85035,3.51982l-11.21607,11.09767l2.65871,15.68313c0.21528,1.29168 -0.32292,2.59412 -1.38855,3.36913c-1.06564,0.77501 -2.47571,0.86112 -3.63822,0.24757l-13.81019,-7.37333l-13.81019,7.37333c-1.16251,0.61355 -2.5726,0.51667 -3.63822,-0.24757c-1.06564,-0.76424 -1.60383,-2.07745 -1.38855,-3.36913l2.64794,-15.68313l-11.21607,-11.09767c-0.9257,-0.91494 -1.24862,-2.28197 -0.85035,-3.51982c0.39827,-1.23786 1.47466,-2.14203 2.76634,-2.33578l15.45708,-2.28197l6.92124,-14.24075c0.58126,-1.18403 1.77606,-1.93751 3.10002,-1.93751c1.32397,0 2.52954,0.75348 3.10002,1.93751z" fill="#fff19e" stroke="#f6c099" stroke-width="4.5"/></g></g></svg>