<svg version="1.1" xmlns="http://www.w3.org/2000/svg" xmlns:xlink="http://www.w3.org/1999/xlink" width="396.09638" height="396.09638" viewBox="0,0,396.09638,396.09638"><g transform="translate(-41.95181,18.04819)"><g data-paper-data="{&quot;isPaintingLayer&quot;:true}" fill-rule="nonzero" stroke="none" stroke-linecap="butt" stroke-linejoin="miter" stroke-miterlimit="10" stroke-dasharray="" stroke-dashoffset="0" style="mix-blend-mode: normal"><path d="M41.95181,180c0,-109.379 88.66919,-198.04819 198.04819,-198.04819c109.379,0 198.04819,88.66919 198.04819,198.04819c0,109.379 -88.66919,198.04819 -198.04819,198.04819c-109.379,0 -198.04819,-88.66919 -198.04819,-198.04819z" fill="#fffc65" stroke-width="0"/><path d="M184.23183,114.14666c-19.4,20.2 -25.35,47.27 -16.5,73.63c0.73,2.17 -0.28,4.89 -2.93,3.16c-36.7,-24.02 -39.73,-75.62 -8.23,-104.86c0.26,-0.24667 0.57,-0.37 0.93,-0.37l25.23,0.06c1.2,0 1.8,0.6 1.8,1.8l0.01,25.8c0,0.3 -0.10334,0.56 -0.31,0.78zM261.13183,119.93666c-0.48,16.17 2.9,33.17 -14.49,41.72c-16.56,8.15 -35.2,-3.13 -36.47,-20.98c-0.05614,-0.77808 0.49338,-1.46716 1.26,-1.58c16.76,-2.5 23.79,-13.04 24.03,-28.81c0.11,-7.64 -0.58,-15.76 0.22,-23.29c0.06143,-0.60102 0.57076,-1.05855 1.18,-1.06h19.16c0.72151,0.00031 1.40158,0.3238 1.85,0.88c7.02,8.65334 11.67667,18.45667 13.97,29.41c0.10357,0.49459 -0.01821,1.00969 -0.33267,1.4071c-0.31445,0.39741 -0.78937,0.63642 -1.29733,0.6529l-7.64,0.22c-0.78634,0.02083 -1.41888,0.64898 -1.44,1.43z" fill="#000000" stroke-width="1"/><path d="M161.20183,240.73666c94.66,35.68 185.85,-56.82 149.68,-151.23c-0.12667,-0.32 -0.10667,-0.63 0.06,-0.93c0.97,-1.8 2.75,-1.63 4.05,-0.23c20.13333,21.72 30.15666,47.08 30.07,76.08c-0.16,59.05 -48,108.63 -107.51,109.84c-29.90667,0.61334 -56.14666,-9.35 -78.72,-29.89c-0.30197,-0.27577 -0.53204,-0.62258 -0.67,-1.01c-0.97,-2.84 1,-3.39 3.04,-2.63z" fill="#000000" stroke-width="1"/></g></g></svg>