<svg version="1.1" xmlns="http://www.w3.org/2000/svg" xmlns:xlink="http://www.w3.org/1999/xlink" width="396.09638" height="396.09638" viewBox="0,0,396.09638,396.09638"><g transform="translate(-41.95181,18.04819)"><g data-paper-data="{&quot;isPaintingLayer&quot;:true}" fill-rule="nonzero" stroke-linecap="butt" stroke-linejoin="miter" stroke-miterlimit="10" stroke-dasharray="" stroke-dashoffset="0" style="mix-blend-mode: normal"><path d="M41.95181,180c0,-109.379 88.66919,-198.04819 198.04819,-198.04819c109.379,0 198.04819,88.66919 198.04819,198.04819c0,109.379 -88.66919,198.04819 -198.04819,198.04819c-109.379,0 -198.04819,-88.66919 -198.04819,-198.04819z" fill="#f6c700" stroke="none" stroke-width="0"/><g stroke-width="1"><path d="M118.33387,132.24736h25.19458v96.98505h-25.19458z" fill="#000000" stroke="none"/><g fill-opacity="0" fill="#000000" stroke-opacity="0" stroke="#000000"><path d="M118.33387,132.24736h25.19458v96.98505h-25.19458z"/></g></g><g stroke-width="1"><path d="M196.97099,131.61238h32.91363v96.98505h-21.99763l-0.08282,-65.46284l-8.80678,65.46284h-15.71969l-9.28715,-64.03829l-0.0773,64.03829h-22.06941v-96.98505c19.6013,0 30.48417,0 32.66516,0c0.96074,5.87487 1.96565,12.76017 3.02026,20.67247c0.23742,1.63988 1.44111,9.85587 3.60554,24.63691z" fill="#000000" stroke="none"/><g fill-opacity="0" fill="#000000" stroke-opacity="0" stroke="#000000"><path d="M196.97099,131.61238h32.91363v96.98505h-21.99763l-0.08282,-65.46284l-8.80678,65.46284h-15.71969l-9.28715,-64.03829l-0.0773,64.03829h-22.06941v-96.98505c19.6013,0 30.48417,0 32.66516,0c0.96074,5.87487 1.96565,12.76017 3.02026,20.67247c0.23742,1.63988 1.44111,9.85587 3.60554,24.63691z"/></g></g><g stroke-width="1"><path d="M269.5676,149.06583c-0.99387,-0.57424 -2.86566,-0.86687 -5.60984,-0.86687c0,6.36628 0,57.29655 0,63.66283c3.61658,0 5.84726,-0.72332 6.68653,-2.18099c0.83375,-1.45767 1.25338,-5.41106 1.25338,-11.86569c0,-3.76014 0,-33.84124 0,-37.60138c0,-4.38407 -0.14356,-7.18899 -0.41963,-8.4258c-0.27607,-1.23681 -0.91657,-2.14234 -1.91044,-2.7221zM269.30809,228.59743h-30.52282v-96.98505c11.28041,0 17.54179,0 18.79517,0c12.19698,0 19.20928,0.56319 23.51052,1.67853c4.29572,1.11534 7.56445,2.94848 9.80617,5.49941c2.23621,2.55093 3.63314,5.3945 4.19634,8.52519c0.55767,3.12517 0.91657,9.27611 0.91657,18.45283c0,3.40676 0,30.65534 0,34.05658c0,8.69635 -0.48589,14.51049 -1.30859,17.43688c-0.81718,2.93191 -2.24725,5.22333 -4.28468,6.87978c-2.04295,1.65093 -4.56075,2.81044 -7.55893,3.4675c-1.99878,0.44172 -6.51536,0.76749 -13.54975,0.98835z" fill="#000000" stroke="none"/><g fill-opacity="0" fill="#000000" stroke-opacity="0" stroke="#000000"><path d="M269.5676,149.06583c-0.99387,-0.57424 -2.86566,-0.86687 -5.60984,-0.86687c0,6.36628 0,57.29655 0,63.66283c3.61658,0 5.84726,-0.72332 6.68653,-2.18099c0.83375,-1.45767 1.25338,-5.41106 1.25338,-11.86569c0,-3.76014 0,-33.84124 0,-37.60138c0,-4.38407 -0.14356,-7.18899 -0.41963,-8.4258c-0.27607,-1.23681 -0.91657,-2.14234 -1.91044,-2.7221zM269.30809,228.59743h-30.52282v-96.98505c11.28041,0 17.54179,0 18.79517,0c12.19698,0 19.20928,0.56319 23.51052,1.67853c4.29572,1.11534 7.56445,2.94848 9.80617,5.49941c2.23621,2.55093 3.63314,5.3945 4.19634,8.52519c0.55767,3.12517 0.91657,9.27611 0.91657,18.45283c0,3.40676 0,30.65534 0,34.05658c0,8.69635 -0.48589,14.51049 -1.30859,17.43688c-0.81718,2.93191 -2.24725,5.22333 -4.28468,6.87978c-2.04295,1.65093 -4.56075,2.81044 -7.55893,3.4675c-1.99878,0.44172 -6.51536,0.76749 -13.54975,0.98835z"/></g></g><g stroke-width="1"><path d="M337.36051,204.22003c0,-14.91356 0,-23.1958 0,-24.85225c0,-4.10247 -0.26503,-6.7804 -0.78957,-8.03377c-0.53006,-1.25338 -2.58958,-1.87731 -4.12456,-1.87731c-1.50185,0 -2.47363,0.55215 -2.91535,1.63988c-0.44724,1.09878 -0.6681,3.854 -0.6681,8.2712c0,2.56197 0,23.0688 0,25.63078c0,4.26259 0.24847,6.98469 0.75644,8.17733c0.50798,1.19816 1.50737,1.79449 3.00921,1.79449c1.53498,0 3.56689,-0.62393 4.03069,-1.85522c0.3092,-0.8227 0.54111,-3.78775 0.70123,-8.89513zM304.59044,130.7676h24.27249c0,18.9332 0,29.44613 0,31.54982c2.00982,-2.32455 4.25155,-4.0583 6.71966,-5.20125c2.47363,-1.14295 6.18407,-1.72271 9.08286,-1.72271c3.33498,0 6.22825,0.51902 8.67979,1.55706c2.45154,1.03804 4.32333,2.49019 5.60984,4.36198c1.28651,1.87179 2.05952,3.6994 2.31903,5.49389c0.25951,1.79449 0.39203,5.61536 0.39203,11.46814c0,2.7221 0,24.48783 0,27.20992c0,5.81966 -0.39203,10.14851 -1.17608,12.9976c-0.78405,2.84357 -2.62823,5.3172 -5.52149,7.40432c-2.89878,2.09265 -6.33315,3.13621 -10.31415,3.13621c-2.86013,0 -6.55401,-0.61841 -9.02212,-1.86074c-2.47915,-1.23681 -4.73744,-3.10308 -6.79144,-5.58775c-0.10491,0.41411 -0.62393,2.47363 -1.5681,6.17855h-22.6823z" fill="#000000" stroke="none"/><g fill-opacity="0" fill="#000000" stroke-opacity="0" stroke="#000000"><path d="M337.36051,204.22003c0,-14.91356 0,-23.1958 0,-24.85225c0,-4.10247 -0.26503,-6.7804 -0.78957,-8.03377c-0.53006,-1.25338 -2.58958,-1.87731 -4.12456,-1.87731c-1.50185,0 -2.47363,0.55215 -2.91535,1.63988c-0.44724,1.09878 -0.6681,3.854 -0.6681,8.2712c0,2.56197 0,23.0688 0,25.63078c0,4.26259 0.24847,6.98469 0.75644,8.17733c0.50798,1.19816 1.50737,1.79449 3.00921,1.79449c1.53498,0 3.56689,-0.62393 4.03069,-1.85522c0.3092,-0.8227 0.54111,-3.78775 0.70123,-8.89513zM304.59044,130.7676h24.27249c0,18.9332 0,29.44613 0,31.54982c2.00982,-2.32455 4.25155,-4.0583 6.71966,-5.20125c2.47363,-1.14295 6.18407,-1.72271 9.08286,-1.72271c3.33498,0 6.22825,0.51902 8.67979,1.55706c2.45154,1.03804 4.32333,2.49019 5.60984,4.36198c1.28651,1.87179 2.05952,3.6994 2.31903,5.49389c0.25951,1.79449 0.39203,5.61536 0.39203,11.46814c0,2.7221 0,24.48783 0,27.20992c0,5.81966 -0.39203,10.14851 -1.17608,12.9976c-0.78405,2.84357 -2.62823,5.3172 -5.52149,7.40432c-2.89878,2.09265 -6.33315,3.13621 -10.31415,3.13621c-2.86013,0 -6.55401,-0.61841 -9.02212,-1.86074c-2.47915,-1.23681 -4.73744,-3.10308 -6.79144,-5.58775c-0.10491,0.41411 -0.62393,2.47363 -1.5681,6.17855h-22.6823z"/></g></g></g></g></svg>