<svg version="1.1" xmlns="http://www.w3.org/2000/svg" xmlns:xlink="http://www.w3.org/1999/xlink" width="396.09638" height="396.09638" viewBox="0,0,396.09638,396.09638"><defs><linearGradient x1="133.39614" y1="286.60458" x2="346.60387" y2="73.39542" gradientUnits="userSpaceOnUse" id="color-1"><stop offset="0" stop-color="#ffd600"/><stop offset="0.25" stop-color="#ff7a00"/><stop offset="0.5" stop-color="#ff0069"/><stop offset="0.75" stop-color="#d300c5"/><stop offset="1" stop-color="#7638fa"/></linearGradient></defs><g transform="translate(-41.95181,18.04819)"><g data-paper-data="{&quot;isPaintingLayer&quot;:true}" fill-rule="nonzero" stroke="none" stroke-linecap="butt" stroke-linejoin="miter" stroke-miterlimit="10" stroke-dasharray="" stroke-dashoffset="0" style="mix-blend-mode: normal"><path d="M41.95181,180c0,-109.379 88.66919,-198.04819 198.04819,-198.04819c109.379,0 198.04819,88.66919 198.04819,198.04819c0,109.379 -88.66919,198.04819 -198.04819,198.04819c-109.379,0 -198.04819,-88.66919 -198.04819,-198.04819z" fill="#ffffff" stroke-width="0"/><path d="M195.84975,74.14099c11.37049,-0.55435 14.99505,-0.67801 43.94682,-0.73345c28.95178,-0.05544 32.60406,0.07036 43.95108,0.56074c11.34704,0.49038 19.09721,2.27922 25.88155,4.90383c7.021,2.70351 12.97382,6.33874 18.90533,12.25531c5.93151,5.91657 9.58805,11.8502 12.32779,18.85841c2.65872,6.77794 4.46461,14.49828 5.00404,25.86663c0.53943,11.36835 0.66949,14.99718 0.72491,43.94256c0.05544,28.94538 -0.06184,32.57847 -0.55861,43.95748c-0.49252,11.3385 -2.27708,19.09295 -4.90383,25.87303c-2.7099,7.02314 -6.34726,12.97169 -12.25531,18.90745c-5.90805,5.93577 -11.8502,9.59017 -18.85841,12.33206c-6.7758,2.64806 -14.47909,4.46461 -25.84956,5.00404c-11.37049,0.53943 -15.01424,0.66735 -43.95536,0.72277c-28.9411,0.05544 -32.59339,-0.0597 -43.94043,-0.55648c-11.34704,-0.49678 -19.10147,-2.28348 -25.88155,-4.90383c-7.03592,-2.7163 -12.97596,-6.34726 -18.90959,-12.25957c-5.93363,-5.91231 -9.59445,-11.8502 -12.32993,-18.85841c-2.66086,-6.77368 -4.46461,-14.51746 -5.00616,-25.8581c-0.55009,-11.37261 -0.67801,-15.00144 -0.73345,-43.95108c-0.05544,-28.94964 0.05544,-32.59767 0.55648,-43.94682c0.50104,-11.34916 2.27922,-19.10147 4.90383,-25.88795c2.71203,-7.01887 6.35152,-12.96317 12.26171,-18.89466c5.91017,-5.93151 11.8502,-9.59657 18.85841,-12.32779c6.77154,-2.66086 14.51746,-4.47101 25.86023,-5.00616M197.09703,266.85716c11.24255,0.48612 14.60061,0.60125 43.0684,0.53943c28.46779,-0.06184 31.83651,-0.1727 43.07906,-0.70146c10.38118,-0.49464 16.02486,-2.24297 19.77735,-3.70773c4.97633,-1.94447 8.52201,-4.2514 12.24465,-7.99537c3.72264,-3.74396 6.03597,-7.29392 7.95487,-12.27236c1.4477,-3.76529 3.17044,-9.41109 3.62457,-19.80507c0.49252,-11.23403 0.59273,-14.61341 0.54155,-43.0684c-0.05117,-28.45499 -0.1727,-31.82585 -0.70786,-43.0684c-0.49038,-10.39612 -2.23444,-16.03126 -3.70345,-19.77735c-1.94447,-4.98485 -4.25354,-8.52201 -7.99963,-12.24891c-3.7461,-3.7269 -7.29178,-6.03171 -12.27449,-7.95059c-3.75463,-1.45196 -9.40683,-3.17256 -19.79227,-3.62457c-11.24683,-0.49464 -14.62406,-0.60125 -43.0812,-0.53943c-28.45713,0.06184 -31.82585,0.16843 -43.0684,0.70146c-10.38972,0.49464 -16.02698,2.23871 -19.78375,3.70559c-4.97419,1.94447 -8.52413,4.2514 -12.24465,7.9975c-3.72051,3.7461 -6.03171,7.28752 -7.95059,12.27449c-1.44343,3.75889 -3.18109,9.40895 -3.62457,19.79441c-0.49252,11.23829 -0.60125,14.60701 -0.53943,43.0684c0.06184,28.46139 0.1727,31.83437 0.70146,43.0684c0.48612,10.39398 2.24509,16.03126 3.70559,19.79227c1.94447,4.96993 4.24714,8.53053 7.99537,12.24251c3.74823,3.71199 7.29604,6.03171 12.27662,7.95059c3.76103,1.44556 9.40469,3.17256 19.79867,3.62457M284.00139,123.02363c-0.01179,-7.0635 5.70351,-12.7998 12.76701,-12.81391c5.1745,-0.01034 9.84563,3.0976 11.83498,7.87442c1.98936,4.77682 0.9051,10.28165 -2.74711,13.94728c-3.65221,3.66563 -9.15303,4.77006 -13.9371,2.79824c-4.78409,-1.97182 -7.90913,-6.63153 -7.91777,-11.80603M185.26389,180.10631c-0.05756,-30.2289 24.39974,-54.78642 54.63077,-54.84612c30.23103,-0.0597 54.79068,24.39974 54.84824,54.63291c0.05756,30.23316 -24.41253,54.78428 -54.63931,54.84184c-30.22677,0.05756 -54.78002,-24.39548 -54.83972,-54.62863M204.46556,180.06794c0.01752,9.425 3.77897,18.4569 10.45665,25.10819c6.67769,6.65129 15.7244,10.37695 25.1494,10.35713c19.62577,-0.03889 35.50407,-15.98024 35.46519,-35.60601c-0.03886,-19.62577 -15.9802,-35.50408 -35.60597,-35.46524c-19.62577,0.03885 -35.50411,15.98015 -35.46529,35.60591" fill="url(#color-1)" stroke-width="1"/></g></g></svg>