<svg version="1.1" xmlns="http://www.w3.org/2000/svg" xmlns:xlink="http://www.w3.org/1999/xlink" width="154.87622" height="154.87622" viewBox="0,0,154.87622,154.87622"><g transform="translate(-162.56189,-102.56189)"><g data-paper-data="{&quot;isPaintingLayer&quot;:true}" fill-rule="nonzero" stroke="none" stroke-linecap="butt" stroke-linejoin="miter" stroke-miterlimit="10" stroke-dasharray="" stroke-dashoffset="0" style="mix-blend-mode: normal"><path d="M162.56189,180c0,-42.76789 34.67022,-77.43811 77.43811,-77.43811c42.76789,0 77.43811,34.67022 77.43811,77.43811c0,42.76789 -34.67022,77.43811 -77.43811,77.43811c-42.76789,0 -77.43811,-34.67022 -77.43811,-77.43811z" fill="#ba0000" stroke-width="0"/><path d="M218.18374,204.21758c-13.99919,0 -21.7822,-8.19174 -21.7822,-23.36605c0,-15.78741 7.78301,-25.06911 22.44639,-25.06911c20.04507,0 22.02062,11.27429 27.47043,27.75995c2.38429,7.28912 6.59086,12.58565 16.673,12.58565c6.79523,0 10.38869,-1.4987 10.38869,-5.19435c0,-5.43278 -5.9437,-5.97776 -13.59046,-7.78301c-8.27689,-1.99259 -11.58084,-6.28431 -11.58084,-13.07954c0,-10.89961 8.78781,-14.28871 17.77999,-14.28871c10.18433,0 16.38348,3.69565 17.18392,12.68783l-9.97996,1.19215c-0.3917,-4.29172 -2.98036,-6.09697 -7.78301,-6.09697c-4.39391,0 -7.08475,2.00962 -7.08475,5.39871c0,2.99739 1.29433,4.78561 5.68824,5.79042c8.90703,1.95852 19.58524,3.26988 19.58524,15.68522c0,9.97996 -8.39611,13.77779 -20.77739,13.77779c-17.26907,0 -23.26386,-7.78301 -26.46562,-17.47344c-4.445,-13.89701 -5.85854,-22.97434 -17.18392,-22.97434c-6.07994,0 -12.2791,4.39391 -12.2791,16.673c0,9.58825 4.8878,15.58304 11.78521,15.58304c7.78301,0 12.97735,-5.79042 12.97735,-5.79042l3.20176,8.68563c0,0 -5.39871,5.29653 -16.673,5.29653z" fill="#ffffff" stroke-width="1"/></g></g></svg>