<svg version="1.1" xmlns="http://www.w3.org/2000/svg" xmlns:xlink="http://www.w3.org/1999/xlink" width="154.87622" height="154.87622" viewBox="0,0,154.87622,154.87622"><g transform="translate(-162.56189,-102.56189)"><g data-paper-data="{&quot;isPaintingLayer&quot;:true}" fill-rule="nonzero" stroke="none" stroke-linecap="butt" stroke-linejoin="miter" stroke-miterlimit="10" stroke-dasharray="" stroke-dashoffset="0" style="mix-blend-mode: normal"><path d="M162.56189,180c0,-42.76789 34.67022,-77.43811 77.43811,-77.43811c42.76789,0 77.43811,34.67022 77.43811,77.43811c0,42.76789 -34.67022,77.43811 -77.43811,77.43811c-42.76789,0 -77.43811,-34.67022 -77.43811,-77.43811z" fill="#ffffff" stroke-width="0"/><path d="M258.50528,195.55698c-7.08846,7.08846 -18.56801,7.08846 -25.65648,0c-6.27298,-6.27298 -7.08846,-16.15919 -1.91953,-23.36057l0.13801,-0.20074c1.27969,-1.79407 3.80142,-2.20809 5.5955,-0.9284c1.79407,1.27969 2.22063,3.78888 0.9284,5.5955l-0.13801,0.20074c-2.87302,4.01471 -2.42137,9.52238 1.07895,13.0227c3.95198,3.95198 10.35041,3.95198 14.30239,0l14.07656,-14.10165c3.95198,-3.95198 3.95198,-10.35041 0,-14.30239c-3.48778,-3.50032 -8.99545,-3.95198 -13.0227,-1.07895l-0.20074,0.13801c-1.79407,1.29223 -4.30326,0.86567 -5.5955,-0.9284c-1.29223,-1.79407 -0.87822,-4.30326 0.9284,-5.5955l0.20074,-0.13801c7.21392,-5.15639 17.10013,-4.3409 23.37311,1.93208c7.08846,7.08846 7.08846,18.56801 0,25.65648zM221.49472,164.44302c7.08846,-7.08846 18.56801,-7.08846 25.65648,0c6.27298,6.27298 7.08846,16.15919 1.91953,23.37311l-0.13801,0.20074c-1.27969,1.79407 -3.80142,2.20809 -5.5955,0.9284c-1.79407,-1.27969 -2.22063,-3.78888 -0.9284,-5.5955l0.13801,-0.20074c2.87302,-4.02725 2.42137,-9.53492 -1.07895,-13.03525c-3.95198,-3.95198 -10.35041,-3.95198 -14.30239,0l-14.07656,14.08911c-3.95198,3.95198 -3.95198,10.35041 0,14.31493c3.48778,3.50032 8.99545,3.95198 13.0227,1.07895l0.20074,-0.13801c1.79407,-1.29223 4.30326,-0.86567 5.5955,0.9284c1.29223,1.79407 0.87822,4.30326 -0.9284,5.5955l-0.20074,0.13801c-7.21392,5.15639 -17.10013,4.3409 -23.37311,-1.93208c-7.08846,-7.08846 -7.08846,-18.56801 0,-25.65648z" fill="#6b7cff" stroke-width="1"/></g></g></svg>