<svg version="1.1" xmlns="http://www.w3.org/2000/svg" xmlns:xlink="http://www.w3.org/1999/xlink" width="551.9" height="534.05315" viewBox="-11.80816,-13,551.9,534.05315"><g transform="translate(24.24184,76.25)"><g data-paper-data="{&quot;isPaintingLayer&quot;:true}" fill="#000000" fill-rule="nonzero" stroke="#000000" stroke-width="26.5" stroke-linecap="butt" stroke-linejoin="miter" stroke-miterlimit="10" stroke-dasharray="" stroke-dashoffset="0" style="mix-blend-mode: normal"><path d="M239.9,-76c9.2,0 17.6,5.2 21.6,13.5l68.6,141.3l153.2,22.6c9,1.3 16.5,7.6 19.3,16.3c2.8,8.7 0.5,18.1 -5.9,24.5l-111.1,110.2l26.2,155.6c1.5,9 -2.2,18.1 -9.7,23.5c-7.5,5.4 -17.3,6 -25.3,1.7l-137,-73.2l-136.8,73.1c-8.1,4.3 -17.9,3.7 -25.3,-1.7c-7.4,-5.4 -11.2,-14.5 -9.7,-23.5l26.2,-155.6l-111.1,-110.1c-6.5,-6.4 -8.7,-15.9 -5.9,-24.5c2.8,-8.6 10.3,-14.9 19.3,-16.3l153.2,-22.6l68.6,-141.3c4.1,-8.3 12.4,-13.5 21.6,-13.5zM239.9,3l-52.5,108.2c-3.5,7.1 -10.2,12.1 -18.1,13.3l-118.3,17.4l85.9,85.1c5.5,5.5 8.1,13.3 6.8,21l-20.3,119.7l105.2,-56.2c7.1,-3.8 15.6,-3.8 22.6,0l105.2,56.2l-20.2,-119.6c-1.3,-7.7 1.2,-15.5 6.8,-21l85.9,-85.1l-118.3,-17.5c-7.8,-1.2 -14.6,-6.1 -18.1,-13.3z"/></g></g></svg>