<svg version="1.1" xmlns="http://www.w3.org/2000/svg" xmlns:xlink="http://www.w3.org/1999/xlink" width="386.51513" height="274.71223" viewBox="0,0,386.51513,274.71223"><defs><linearGradient x1="210.25158" y1="86.16313" x2="238.67938" y2="86.16313" gradientUnits="userSpaceOnUse" id="color-1"><stop offset="0" stop-color="#e2e2e2"/><stop offset="1" stop-color="#8b8b8b"/></linearGradient><linearGradient x1="212.01123" y1="88.16544" x2="232.62755" y2="88.16544" gradientUnits="userSpaceOnUse" id="color-2"><stop offset="0" stop-color="#ffcbfe"/><stop offset="1" stop-color="#d6cbff"/></linearGradient><linearGradient x1="156.73072" y1="86.16313" x2="185.15852" y2="86.16313" gradientUnits="userSpaceOnUse" id="color-3"><stop offset="0" stop-color="#e2e2e2"/><stop offset="1" stop-color="#8b8b8b"/></linearGradient><linearGradient x1="162.78255" y1="88.16545" x2="183.39887" y2="88.16545" gradientUnits="userSpaceOnUse" id="color-4"><stop offset="0" stop-color="#ffcbfe"/><stop offset="1" stop-color="#d6cbff"/></linearGradient><linearGradient x1="156.87881" y1="124.45419" x2="238.54548" y2="124.45419" gradientUnits="userSpaceOnUse" id="color-5"><stop offset="0" stop-color="#e2e2e2"/><stop offset="1" stop-color="#8b8b8b"/></linearGradient><linearGradient x1="192.58731" y1="128.2489" x2="202.83501" y2="128.2489" gradientUnits="userSpaceOnUse" id="color-6"><stop offset="0" stop-color="#ffcbfe"/><stop offset="1" stop-color="#d6cbff"/></linearGradient></defs><g transform="translate(-46.74244,-38.89388)"><g data-paper-data="{&quot;isPaintingLayer&quot;:true}" fill-rule="nonzero" stroke-linecap="butt" stroke-linejoin="miter" stroke-miterlimit="10" stroke-dasharray="" stroke-dashoffset="0" style="mix-blend-mode: normal"><path d="M249.75749,265.81668c6.29373,2.35469 9.41754,9.55116 6.97723,16.07376c-2.44032,6.5226 -9.52067,9.90134 -15.8144,7.54665c-6.29373,-2.35469 -9.41754,-9.55116 -6.97722,-16.07376c2.44032,-6.5226 9.52067,-9.90134 15.8144,-7.54665z" fill="#efefef" stroke="none" stroke-width="0"/><path d="M241.12751,289.51462l-76.45731,-28.60524l8.83718,-23.6204l76.45731,28.60524z" fill="#efefef" stroke="none" stroke-width="0"/><path d="M249.03317,286.06621c7.11244,2.661 10.64258,10.79359 7.88482,18.16465c-2.75776,7.37106 -10.75912,11.18932 -17.87156,8.52832c-7.11244,-2.661 -10.64258,-10.79359 -7.88482,-18.16465c2.75776,-7.37106 10.75912,-11.18932 17.87156,-8.52832z" fill="#ffffff" stroke="none" stroke-width="0"/><path d="M239.28058,312.84679l-82.49464,-30.864l9.98674,-26.69298l82.49464,30.86401z" fill="#ffffff" stroke="none" stroke-width="0"/><path d="M218.05797,235.74344l-109.15891,-32.86843l28.83195,-95.75342l109.1589,32.86842z" fill="#ffffff" stroke="none" stroke-width="0"/><path d="M178.73365,167.12362c30.1434,9.07637 47.28615,40.65591 38.28941,70.5349c-8.99674,29.87898 -40.72611,46.74284 -70.86951,37.66647c-30.1434,-9.07637 -47.28615,-40.65591 -38.2894,-70.5349c8.99675,-29.87898 40.72611,-46.74284 70.86951,-37.66647z" fill="#ffffff" stroke="none" stroke-width="NaN"/><path d="M260.9457,108.60682c0,34.36023 -28.24615,62.21381 -63.08965,62.21381c-34.84356,0 -63.08971,-27.85357 -63.08971,-62.21461c0,-34.35943 28.24615,-62.21214 63.08971,-62.21214c34.84356,0 63.08965,27.85274 63.08965,62.21214z" fill="#1d0058" stroke="none" stroke-width="1"/><path d="M195.02824,177.62291c33.65911,9.07636 52.80127,40.65591 42.7552,70.53489c-10.04606,29.87899 -45.4761,46.74284 -79.13521,37.66648c-33.65911,-9.07637 -52.80127,-40.65591 -42.7552,-70.5349c10.04606,-29.87898 45.4761,-46.74284 79.13521,-37.66647z" fill="#ffffff" stroke="none" stroke-width="NaN"/><path d="M171.80902,184.08256c7.89768,-0.48982 16.0676,0.04522 24.13577,1.74414c13.73544,2.89227 25.05344,8.7108 32.95702,16.1712" fill="none" stroke="#efefef" stroke-width="3.5"/><path d="M163.31649,260.86898c-3.54865,2.74624 -8.65905,4.80656 -14.49523,5.53213c-5.15078,0.64035 -10.00802,0.13426 -13.90532,-1.22652l-1.26438,-0.39319c-4.93846,-2.30995 -11.55491,-3.30257 -18.62936,-2.42307c-4.24455,0.52769 -8.16423,1.66842 -11.53291,3.24149l-0.2149,0.01826c-3.36182,1.59816 -7.27578,2.76775 -11.51644,3.32633c-7.06796,0.93099 -13.68429,-0.01436 -18.62775,-2.2898l-3.13516,-0.96363c-12.07489,-3.79634 -21.38326,-14.07441 -23.00579,-27.12557c-1.38755,-11.16098 3.17117,-21.732 11.2612,-28.71092l0.53655,-0.24074c0.88626,-0.4738 1.87659,-0.79677 2.93875,-0.92882c4.50894,-0.56055 8.60507,2.53168 9.14897,6.90667c0.42171,3.3921 -1.41582,6.55942 -4.36433,8.07263l-1.91659,1.24298c-2.86246,3.41608 -4.34996,7.8932 -3.76815,12.57311c0.66769,5.37072 3.91235,9.81519 8.39881,12.33266l0.79012,0.29408c4.94347,2.27544 11.55979,3.22078 18.62775,2.28979c4.24065,-0.55858 8.15461,-1.72816 11.51644,-3.32633l0.2149,-0.01826c3.36868,-1.57308 7.28836,-2.71382 11.53291,-3.2415c7.07445,-0.87951 13.69092,0.11312 18.62936,2.42307l0.07647,0.03283c3.89731,1.36077 8.75455,1.86687 13.90533,1.22651c5.83617,-0.72557 10.94657,-2.78588 14.49521,-5.53212z" data-paper-data="{&quot;index&quot;:null}" fill="#ffffff" stroke="none" stroke-width="0"/><path d="M238.57491,66.23972c-3.04918,7.11038 -4.93499,16.93086 -4.93499,27.77784c0,4.37344 0.30657,8.58 0.87235,12.50934l-24.26069,-20.51193c0.83182,-0.77428 1.68013,-1.54563 2.54431,-2.31289c8.83587,-7.84489 17.90047,-13.99293 25.88349,-17.90273z" data-paper-data="{&quot;index&quot;:null}" fill="url(#color-1)" stroke="#000000" stroke-width="0"/><path d="M232.55179,73.71666c-2.21132,5.15657 -3.57894,12.27854 -3.57894,20.14496c0,3.1717 0.22234,6.22237 0.63265,9.07199l-17.59427,-14.87561c0.60324,-0.56153 1.21846,-1.12092 1.84517,-1.67735c6.40792,-5.68924 12.98173,-10.14792 18.77115,-12.98337z" data-paper-data="{&quot;index&quot;:null}" fill="url(#color-2)" stroke="#000000" stroke-width="0"/><path d="M156.73072,65.79935c7.98302,3.9098 17.04762,10.05784 25.88349,17.90273c0.86418,0.76726 1.71249,1.53861 2.54431,2.31289l-24.26069,20.51193c0.56578,-3.92934 0.87235,-8.1359 0.87235,-12.50934c0,-10.84698 -1.88581,-20.66746 -4.93499,-27.77784z" fill="url(#color-3)" stroke="#000000" stroke-width="0"/><path d="M162.78255,73.39729c5.78942,2.83545 12.36323,7.29413 18.77115,12.98337c0.62671,0.55643 1.24193,1.11582 1.84517,1.67735l-17.59427,14.87561c0.41031,-2.84962 0.63265,-5.90029 0.63265,-9.07199c0,-7.86642 -1.36762,-14.98839 -3.57894,-20.14496z" fill="url(#color-4)" stroke="#000000" stroke-width="0"/><path d="M238.54548,124.45419c0,23.10391 -18.2817,41.83333 -40.83333,41.83333c-22.55162,0 -40.83334,-18.72942 -40.83334,-41.83333c0,-23.10391 18.28171,-41.83334 40.83334,-41.83334c22.55163,0 40.83333,18.72943 40.83333,41.83334z" fill="url(#color-5)" stroke="none" stroke-width="0"/><path d="M161.57686,143.95383c-1.41886,-2.75398 -2.54654,-5.6898 -3.34107,-8.76443l14.63763,-0.16712z" fill="#b5b5b5" stroke="#000000" stroke-width="0"/><path d="M156.97886,127.40549c-0.06633,-0.97494 -0.10004,-1.95909 -0.10004,-2.9513c0,-2.18593 0.16365,-4.33271 0.47908,-6.42816l14.58261,4.63517z" fill="#b5b5b5" stroke="#000000" stroke-width="0"/><path d="M173.10665,111.46629l-14.38751,0.53299c0.78851,-2.59375 1.81679,-5.07919 3.05828,-7.42911z" fill="#b5b5b5" stroke="#000000" stroke-width="0"/><path d="M222.56405,135.02228l14.63763,0.16712c-0.79453,3.07464 -1.92221,6.01045 -3.34107,8.76443z" data-paper-data="{&quot;index&quot;:null}" fill="#696969" stroke="#000000" stroke-width="0"/><path d="M223.49694,122.66121l14.58262,-4.63518c0.31543,2.09545 0.47908,4.24223 0.47908,6.42816c0,0.99221 -0.03372,1.97636 -0.10005,2.9513z" data-paper-data="{&quot;index&quot;:null}" fill="#696969" stroke="#000000" stroke-width="0"/><path d="M233.66006,104.57019c1.24149,2.34992 2.26977,4.83536 3.05827,7.42911l-14.3875,-0.53299z" data-paper-data="{&quot;index&quot;:null}" fill="#696969" stroke="#000000" stroke-width="0"/><path d="M202.52209,124.8664c0.01043,0.03129 0.02063,0.06273 0.0306,0.09432c0.924,2.92684 -0.49459,5.98384 -3.16849,6.82798c-2.67391,0.84415 -5.59058,-0.84422 -6.51458,-3.77106c-0.34428,-1.09055 -0.36334,-2.19914 -0.11342,-3.20463l0.36931,-0.32139c1.14268,0.37633 2.54033,0.62415 4.05566,0.68067c1.89903,0.07081 3.63613,-0.17176 4.93265,-0.62454z" fill="url(#color-6)" stroke="#000000" stroke-width="0"/><path d="M176.02269,111.52391v-5.83333h11.16666v5.83333z" fill="#ffffff" stroke="none" stroke-width="0"/><path d="M187.18935,111.52391v-5.83333h7.5v5.83333z" fill="#4a4a4a" stroke="none" stroke-width="0"/><path d="M198.52269,111.52391v-5.83333h11.16666v5.83333z" fill="#ffffff" stroke="none" stroke-width="0"/><path d="M209.68935,111.52391v-5.83334h7.5v5.83334z" fill="#4a4a4a" stroke="none" stroke-width="0"/><path d="M182.10623,144.24268v-2.5h30.33333v2.5z" fill="#696969" stroke="none" stroke-width="0"/><path d="M260.9457,108.60682c0,34.36023 -28.24615,62.21381 -63.08965,62.21381c-34.84356,0 -63.08971,-27.85357 -63.08971,-62.21461c0,-34.35857 28.24615,-62.21214 63.08971,-62.21214c34.84356,0 63.08965,27.85357 63.08965,62.21297z" fill="none" stroke="#ffffff" stroke-width="15"/><path d="M345.22179,126.34342c-4.172,-1.31568 -7.27501,-3.92745 -9.30906,-7.83535c-2.03405,-3.9079 -2.39323,-7.94783 -1.07755,-12.11983c1.31568,-4.172 3.92745,-7.27501 7.83535,-9.30906c3.9079,-2.03405 7.94783,-2.39323 12.11983,-1.07755c1.45388,0.4585 2.74231,1.05594 3.86531,1.79232c1.123,0.73638 2.14376,1.63165 3.0623,2.68581l11.42247,-36.22051c0.33889,-1.07461 0.98643,-1.86076 1.94261,-2.35845c0.95618,-0.49769 1.97157,-0.5771 3.04619,-0.23821l15.17089,4.78428c1.07461,0.33889 1.86076,0.98643 2.35845,1.94261c0.49769,0.95618 0.5771,1.97157 0.23821,3.04619l-2.39214,7.58545c-0.33889,1.07461 -0.98643,1.86076 -1.94261,2.35845c-0.95618,0.49769 -1.97157,0.5771 -3.04619,0.23821l-11.37817,-3.58821l-11.9607,37.92723c-1.31568,4.172 -3.92745,7.27501 -7.83535,9.30906c-3.9079,2.03405 -7.94783,2.39323 -12.11983,1.07755z" fill="#5076ff" stroke="none" stroke-width="1"/><path d="M387.26003,148.15145c-2.8345,0.14654 -5.31318,-0.73726 -7.43605,-2.65142c-2.12287,-1.91416 -3.25757,-4.28848 -3.40411,-7.12298c-0.14654,-2.8345 0.73726,-5.31318 2.65142,-7.43605c1.91416,-2.12287 4.28848,-3.25757 7.12298,-3.40411c0.98779,-0.05107 1.90651,0.01986 2.75619,0.21277c0.84968,0.19291 1.67325,0.50559 2.47072,0.93804l-1.27225,-24.60863c-0.03774,-0.7301 0.17756,-1.35486 0.64591,-1.87428c0.46835,-0.51942 1.06758,-0.79801 1.79768,-0.83576l10.30728,-0.53288c0.7301,-0.03774 1.35486,0.17757 1.87429,0.64592c0.51942,0.46835 0.79801,1.06758 0.83575,1.79768l0.26644,5.15364c0.03774,0.7301 -0.17757,1.35486 -0.64592,1.87429c-0.46835,0.51942 -1.06758,0.79801 -1.79768,0.83576l-7.73046,0.39966l1.3322,25.7682c0.14654,2.8345 -0.73726,5.31318 -2.65142,7.43605c-1.91416,2.12287 -4.28848,3.25757 -7.12298,3.40411z" fill="#5076ff" stroke="none" stroke-width="1"/><path d="M408.56535,132.03659c-1.41034,-0.91722 -2.29109,-2.20459 -2.64224,-3.8621c-0.35116,-1.65751 -0.06812,-3.19143 0.84911,-4.60177c0.91722,-1.41034 2.20459,-2.29109 3.8621,-2.64224c1.65751,-0.35116 3.19143,-0.06812 4.60177,0.84911c0.49148,0.31964 0.90735,0.67372 1.2476,1.06225c0.34025,0.38853 0.62627,0.82539 0.85803,1.3106l7.9632,-12.24431c0.23626,-0.36327 0.55717,-0.58786 0.96272,-0.67379c0.40556,-0.08592 0.78997,-0.01076 1.15325,0.2255l5.12851,3.33537c0.36327,0.23626 0.58786,0.55717 0.67379,0.96272c0.08592,0.40556 0.01075,0.78997 -0.2255,1.15324l-1.66768,2.56425c-0.23626,0.36327 -0.55717,0.58786 -0.96273,0.67378c-0.40556,0.08592 -0.78997,0.01076 -1.15325,-0.2255l-3.84638,-2.50153l-8.33842,12.82127c-0.91722,1.41034 -2.20459,2.29108 -3.86211,2.64224c-1.65751,0.35116 -3.19143,0.06812 -4.60177,-0.84911z" fill="#5076ff" stroke="none" stroke-width="1"/></g></g></svg>