<svg version="1.1" xmlns="http://www.w3.org/2000/svg" xmlns:xlink="http://www.w3.org/1999/xlink" width="144.37643" height="114.26992" viewBox="0,0,144.37643,114.26992"><g transform="translate(-167.81178,-126.83091)"><g data-paper-data="{&quot;isPaintingLayer&quot;:true}" fill-rule="nonzero" stroke="#ff0000" stroke-width="0" stroke-linecap="butt" stroke-linejoin="miter" stroke-miterlimit="10" stroke-dasharray="" stroke-dashoffset="0" style="mix-blend-mode: normal"><path d="M281.4264,183.40029c0.00795,-0.33441 0.01195,-0.6698 0.01195,-1.00613c0,-22.91243 -18.55185,-41.48661 -41.43671,-41.48661c-22.88487,0 -41.43671,18.57419 -41.43671,41.48661c0,0.39874 0.00562,0.79619 0.01678,1.19223l-13.05224,-0.62767c-0.01468,-0.52085 -0.02206,-1.04352 -0.02206,-1.56794c0,-30.13258 24.3979,-54.55987 54.49424,-54.55987c30.09634,0 54.49424,24.42728 54.49424,54.55987c0,0.44231 -0.00526,0.88339 -0.01571,1.32318z" fill="#667dff"/><path d="M186.13946,176.46938h12.3863v64.56019h-12.54928l-0.27586,0.07116c-0.02068,0.00007 -0.04137,0.0001 -0.06206,0.0001c-9.84452,0 -17.82525,-7.97978 -17.82678,-17.82394v-29.01538c0.00154,-9.84415 7.98227,-17.82394 17.82678,-17.82394c0.0207,0 0.04138,0.00004 0.06206,0.00011z" fill="#afbbff"/><path d="M294.29937,176.43768c0.02068,-0.00007 0.04136,-0.00011 0.06206,-0.00011c9.84451,0 17.82524,7.97979 17.82678,17.82394v29.01538c-0.00153,9.84416 -7.98226,17.82394 -17.82678,17.82394c-0.02069,0 -0.04138,-0.00003 -0.06206,-0.0001l-0.27586,-0.07116h-12.54928v-64.56019h12.3863z" data-paper-data="{&quot;index&quot;:null}" fill="#afbbff"/><path d="M207.85328,187.60352c0.00886,-0.00005 0.01771,-0.00008 0.02658,-0.00008c4.21629,0 7.63435,5.60559 7.63501,12.52083v20.38251c-0.00065,6.91525 -3.41871,12.52083 -7.63501,12.52083c-0.00887,0 -0.01773,-0.00002 -0.02658,-0.00007l-0.11815,-0.04999h-5.37471v-45.35176h5.30491z" fill="#667dff"/><path d="M272.20994,187.62579h5.30491v45.35176h-5.37471l-0.11815,0.04999c-0.00886,0.00005 -0.01772,0.00007 -0.02659,0.00007c-4.2163,0 -7.63437,-5.60558 -7.63501,-12.52083v-20.38251c0.00066,-6.91524 3.41872,-12.52083 7.63501,-12.52083c0.00887,0 0.01773,0.00003 0.02659,0.00008z" data-paper-data="{&quot;index&quot;:null}" fill="#667dff"/></g></g></svg>