<svg version="1.1" xmlns="http://www.w3.org/2000/svg" xmlns:xlink="http://www.w3.org/1999/xlink" width="326.55874" height="326.55874" viewBox="0,0,326.55874,326.55874"><g transform="translate(-76.72063,-16.72063)"><g data-paper-data="{&quot;isPaintingLayer&quot;:true}" fill-rule="nonzero" stroke-width="0" stroke-linejoin="miter" stroke-miterlimit="10" stroke-dasharray="" stroke-dashoffset="0" style="mix-blend-mode: normal"><path d="M76.72063,343.27937v-326.55874h326.55874v326.55874z" fill="#e3e3e3" stroke="none" stroke-linecap="butt"/><path d="M154.03433,235.37229c0,-16.01374 12.9817,-28.99545 28.99545,-28.99545c16.01374,0 28.99545,12.9817 28.99545,28.99545c0,16.01374 -12.9817,28.99545 -28.99545,28.99545c-16.01374,0 -28.99545,-12.9817 -28.99545,-28.99545z" fill="#9e9e9e" stroke="none" stroke-linecap="butt"/><path d="M243.93689,210.25159c0,-16.01374 12.9817,-28.99545 28.99545,-28.99545c16.01374,0 28.99545,12.9817 28.99545,28.99545c0,16.01374 -12.9817,28.99545 -28.99545,28.99545c-16.01374,0 -28.99545,-12.9817 -28.99545,-28.99545z" fill="#9e9e9e" stroke="none" stroke-linecap="butt"/><path d="M198.60585,157.97121v-33.23711l103.36491,-29.10184v33.23711z" fill="#9e9e9e" stroke="#000000" stroke-linecap="round"/><path d="M198.27724,240.40455v-115.02325h13.43302v115.02325z" fill="#9e9e9e" stroke="none" stroke-linecap="butt"/><path d="M288.54031,212.87216v-107.77914h13.43303v107.77914z" fill="#9e9e9e" stroke="none" stroke-linecap="butt"/></g></g></svg>