<svg version="1.1" xmlns="http://www.w3.org/2000/svg" xmlns:xlink="http://www.w3.org/1999/xlink" width="19" height="14" viewBox="0,0,19,14"><g transform="translate(-230.5,-173)"><g data-paper-data="{&quot;isPaintingLayer&quot;:true}" fill="#000000" fill-rule="nonzero" stroke="none" stroke-width="1" stroke-linecap="butt" stroke-linejoin="miter" stroke-miterlimit="10" stroke-dasharray="" stroke-dashoffset="0" style="mix-blend-mode: normal"><path d="M243.5,187c-0.83334,0 -1.54166,-0.29166 -2.125,-0.875c-0.58334,-0.58334 -0.875,-1.29166 -0.875,-2.125c0,-0.83334 0.29166,-1.54166 0.875,-2.125c0.58334,-0.58334 1.29166,-0.875 2.125,-0.875c0.18333,0 0.35834,0.0125 0.525,0.0375c0.16666,0.025 0.325,0.07916 0.475,0.1625v-7.2c0,-0.28333 0.09583,-0.52084 0.2875,-0.7125c0.19167,-0.19167 0.42917,-0.2875 0.7125,-0.2875h3c0.28333,0 0.52084,0.09583 0.7125,0.2875c0.19167,0.19167 0.2875,0.42917 0.2875,0.7125c0,0.28333 -0.09583,0.52084 -0.2875,0.7125c-0.19167,0.19167 -0.42917,0.2875 -0.7125,0.2875h-2v9c0,0.83334 -0.29166,1.54166 -0.875,2.125c-0.58334,0.58334 -1.29166,0.875 -2.125,0.875zM231.5,183c-0.28333,0 -0.52084,-0.09583 -0.7125,-0.2875c-0.19167,-0.19167 -0.2875,-0.42917 -0.2875,-0.7125c0,-0.28333 0.09583,-0.52084 0.2875,-0.7125c0.19167,-0.19167 0.42917,-0.2875 0.7125,-0.2875h6c0.28333,0 0.52084,0.09583 0.7125,0.2875c0.19167,0.19167 0.2875,0.42917 0.2875,0.7125c0,0.28333 -0.09583,0.52084 -0.2875,0.7125c-0.19167,0.19167 -0.42917,0.2875 -0.7125,0.2875zM231.5,179c-0.28333,0 -0.52084,-0.09583 -0.7125,-0.2875c-0.19167,-0.19167 -0.2875,-0.42917 -0.2875,-0.7125c0,-0.28333 0.09583,-0.52084 0.2875,-0.7125c0.19167,-0.19167 0.42917,-0.2875 0.7125,-0.2875h10c0.28333,0 0.52084,0.09583 0.7125,0.2875c0.19167,0.19167 0.2875,0.42917 0.2875,0.7125c0,0.28333 -0.09583,0.52084 -0.2875,0.7125c-0.19167,0.19167 -0.42917,0.2875 -0.7125,0.2875zM231.5,175c-0.28333,0 -0.52084,-0.09583 -0.7125,-0.2875c-0.19167,-0.19167 -0.2875,-0.42917 -0.2875,-0.7125c0,-0.28333 0.09583,-0.52084 0.2875,-0.7125c0.19167,-0.19167 0.42917,-0.2875 0.7125,-0.2875h10c0.28333,0 0.52084,0.09583 0.7125,0.2875c0.19167,0.19167 0.2875,0.42917 0.2875,0.7125c0,0.28333 -0.09583,0.52084 -0.2875,0.7125c-0.19167,0.19167 -0.42917,0.2875 -0.7125,0.2875z"/></g></g></svg>