<svg version="1.1" xmlns="http://www.w3.org/2000/svg" xmlns:xlink="http://www.w3.org/1999/xlink" width="176" height="176" viewBox="0,0,176,176"><g transform="translate(-152,-92)"><g data-paper-data="{&quot;isPaintingLayer&quot;:true}" fill-rule="nonzero" stroke="none" stroke-linecap="butt" stroke-linejoin="miter" stroke-miterlimit="10" stroke-dasharray="" stroke-dashoffset="0" style="mix-blend-mode: normal"><path d="M152,180c0,-48.60106 39.39894,-88 88,-88c48.60106,0 88,39.39894 88,88c0,48.60106 -39.39894,88 -88,88c-48.60106,0 -88,-39.39894 -88,-88z" fill="#ff5500" stroke-width="0"/><path d="M182.164,183.601l0.879,6.445l-0.879,6.445c0,0.586 -0.879,0.586 -0.879,0l-0.879,-6.445l0.879,-6.445c0,-0.879 0.879,-0.879 0.879,0zM187.73,190.047l-1.172,10.254c0,0.879 -1.172,0.879 -1.172,0l-1.172,-10.254l1.465,-10.547c0,-0.879 0.879,-0.879 0.879,0zM205.601,170.711l1.172,19.336l-1.172,11.719c0,2.344 -2.051,2.344 -2.051,0l-0.586,-11.719l0.879,-19.336c0,-1.465 1.758,-1.465 1.758,0zM194.762,177.156c0,-0.879 1.172,-0.879 1.172,0l1.172,12.891l-1.172,11.719c0,1.758 -1.465,1.758 -1.465,0l-0.879,-11.719l1.171,-12.891zM212.925,201.765l-0.586,-11.719l0.879,-25.781c0,-1.758 2.051,-1.758 2.051,0l0.879,25.781l-0.879,11.719c0,2.344 -2.344,2.344 -2.344,0zM232.261,201.765l-0.586,-11.719l0.586,-29.883c0,-2.051 2.93,-2.051 2.93,0l0.586,29.883l-0.586,11.719c0,2.344 -2.93,2.344 -2.93,0zM222.593,201.765l-0.586,-11.719l0.586,-26.074c0,-1.758 2.637,-1.758 2.637,0l0.879,26.074l-0.879,11.719c0,2.344 -2.637,2.344 -2.637,0zM199.156,201.765l-0.879,-11.719l0.879,-12.012c0,-0.879 1.758,-0.879 1.758,0l0.879,12.012l-0.879,11.719c0,2.051 -1.758,2.051 -1.758,0zM190.074,201.765l-1.172,-11.719l1.172,-12.598c0,-0.879 1.172,-0.879 1.172,0l1.172,12.598l-1.172,11.719c0,1.172 -1.172,1.172 -1.172,0zM230.211,165.144l0.586,24.902l-0.586,11.719c0,2.344 -2.93,2.344 -2.93,0l-0.293,-11.719l0.586,-24.902c0,-2.051 2.637,-2.051 2.637,0zM210.582,201.766c0,2.344 -2.344,2.344 -2.344,0l-0.586,-11.719l0.879,-23.731c0,-1.758 2.051,-1.758 2.051,0l0.879,23.73l-0.879,11.719zM217.906,201.765l-0.879,-11.719l0.879,-26.66c0,-1.758 2.344,-1.758 2.344,0l0.879,26.66l-0.879,11.719c0,2.344 -2.344,2.344 -2.344,0zM277.673,175.69c9.668,-3.222 19.922,2.637 19.922,13.477c0,7.911 -6.446,14.356 -14.356,14.356h-40.137c-0.879,0 -1.465,-0.879 -1.465,-1.758v-45.703c0,-0.879 0.293,-1.172 1.465,-1.758c15.82,-6.152 33.105,4.688 34.57,21.387zM237.242,157.528c0,-2.051 2.93,-2.051 2.93,0l0.879,32.519l-0.879,11.719c0,2.344 -2.93,2.344 -2.93,0l-0.879,-11.719l0.879,-32.52z" fill="#ffffff" stroke-width="1"/></g></g></svg>