<svg version="1.1" xmlns="http://www.w3.org/2000/svg" xmlns:xlink="http://www.w3.org/1999/xlink" width="218.81521" height="218.81595" viewBox="0,0,218.81521,218.81595"><g transform="translate(-130.59239,-70.59203)"><g data-paper-data="{&quot;isPaintingLayer&quot;:true}" fill-rule="nonzero" stroke="none" stroke-linecap="butt" stroke-linejoin="miter" stroke-miterlimit="10" stroke-dasharray="" stroke-dashoffset="0" style="mix-blend-mode: normal"><path d="M349.32035,184.34c-2.4,60.38 -53.28,107.38 -113.66,104.98c-60.37,-2.4 -107.38,-53.28 -104.98,-113.66c2.39,-60.38 53.28,-107.38 113.66,-104.98c60.37,2.39 107.37,53.28 104.98,113.66zM290.53035,230.96c1.78,-3.14 0.68,-7.12 -2.45,-8.91c-15.91,-9.05 -33.23,-14.94 -51.49,-17.51c-18.26,-2.57 -36.54,-1.68 -54.32,2.64c-3.51,0.85 -5.66,4.38 -4.81,7.89c0.85,3.51 4.38,5.66 7.89,4.81c16.17,-3.93 32.8,-4.74 49.42,-2.4c16.62,2.34 32.38,7.7 46.84,15.93c0.74,0.42 1.53,0.68 2.32,0.79c2.58,0.36 5.23,-0.84 6.59,-3.24zM304.90035,202.23c2.23,-4.13 0.7,-9.28 -3.43,-11.51c-18.7,-10.12 -38.95,-16.76 -60.16,-19.74c-21.22,-2.98 -42.51,-2.17 -63.28,2.4c-4.58,1.01 -7.48,5.54 -6.47,10.12c0.78,3.57 3.7,6.11 7.11,6.59c0.98,0.14 1.99,0.1 3.01,-0.12c18.79,-4.13 38.05,-4.86 57.26,-2.16c19.21,2.7 37.53,8.71 54.45,17.86c4.12,2.23 9.28,0.69 11.51,-3.43zM320.84035,169.87c2.66,-5.12 0.67,-11.43 -4.45,-14.09c-21.82,-11.35 -45.3,-18.85 -69.81,-22.29c-24.51,-3.44 -49.15,-2.71 -73.25,2.18c-5.65,1.15 -9.31,6.66 -8.16,12.32c1.15,5.65 6.66,9.31 12.32,8.16c21.76,-4.42 44.03,-5.08 66.18,-1.97c22.15,3.11 43.37,9.88 63.07,20.13c1.09,0.56 2.22,0.92 3.37,1.08c4.26,0.6 8.63,-1.49 10.73,-5.53z" fill="#1ed760" stroke-width="1"/><path d="M290.5692,230.97067c-1.36,2.4 -4.01113,3.60426 -6.59113,3.24426c-0.79,-0.11 -1.67546,-0.39979 -2.41546,-0.81979c-14.46,-8.23 -30.18947,-13.52819 -46.80947,-15.86819c-16.62,-2.34 -33.1828,-1.57816 -49.3528,2.35184c-3.51,0.85 -7.13988,-1.30195 -7.98988,-4.81195c-0.85,-3.51 1.30108,-7.04762 4.81108,-7.89762c17.78,-4.32 36.11672,-5.24858 54.37672,-2.67858c18.26,2.57 35.62201,8.5125 51.53201,17.5625c3.13,1.79 4.22895,5.77754 2.44895,8.91754z" data-paper-data="{&quot;noHover&quot;:false,&quot;origItem&quot;:[&quot;Path&quot;,{&quot;applyMatrix&quot;:true,&quot;segments&quot;:[[[290.53035,230.96],[0,0],[1.78,-3.14]],[[288.08035,222.05],[3.13,1.79],[-15.91,-9.05]],[[236.59035,204.54],[18.26,2.57],[-18.26,-2.57]],[[182.27035,207.18],[17.78,-4.32],[-3.51,0.85]],[[177.46035,215.07],[-0.85,-3.51],[0.85,3.51]],[[185.35035,219.88],[-3.51,0.85],[16.17,-3.93]],[[234.77035,217.48],[-16.62,-2.34],[16.62,2.34]],[[281.61035,233.41],[-14.46,-8.23],[0.74,0.42]],[[283.93035,234.2],[-0.79,-0.11],[2.58,0.36]],[[290.52035,230.96],[-1.36,2.4],[0,0]]],&quot;closed&quot;:true,&quot;fillColor&quot;:[0,0,0,1]}]}" fill="#000000" stroke-width="0.5"/><path d="M304.94923,202.25054c-2.23,4.12 -7.48645,5.63407 -11.60645,3.40407c-16.92,-9.15 -35.23729,-15.12254 -54.44729,-17.82254c-19.21,-2.7 -38.37517,-1.99384 -57.16517,2.13616c-1.02,0.22 -2.12994,0.26354 -3.10994,0.12354c-3.41,-0.48 -6.32992,-3.02509 -7.10992,-6.59509c-1.01,-4.58 1.89128,-9.11838 6.47128,-10.12838c20.77,-4.57 42.11638,-5.4177 63.33638,-2.4377c21.21,2.98 41.50219,9.67159 60.20219,19.79159c4.13,2.23 5.65893,7.38833 3.42893,11.51833z" data-paper-data="{&quot;noHover&quot;:false,&quot;origItem&quot;:[&quot;Path&quot;,{&quot;applyMatrix&quot;:true,&quot;segments&quot;:[[[304.90035,202.23],[0,0],[2.23,-4.13]],[[301.47035,190.72],[4.13,2.23],[-18.7,-10.12]],[[241.31035,170.98],[21.21,2.98],[-21.22,-2.98]],[[178.03035,173.38],[20.77,-4.57],[-4.58,1.01]],[[171.56035,183.5],[-1.01,-4.58],[0.78,3.57]],[[178.67035,190.09],[-3.41,-0.48],[0.98,0.14]],[[181.68035,189.97],[-1.02,0.22],[18.79,-4.13]],[[238.94035,187.81],[-19.21,-2.7],[19.21,2.7]],[[293.39035,205.67],[-16.92,-9.15],[4.12,2.23]],[[304.90035,202.24],[-2.23,4.12],[0,0]]],&quot;closed&quot;:true,&quot;fillColor&quot;:[0,0,0,1]}]}" fill="#000000" stroke-width="0.5"/><path d="M320.88926,169.87039c-2.1,4.04 -6.47142,6.13526 -10.73142,5.53526c-1.15,-0.16 -2.37496,-0.55133 -3.46496,-1.11133c-19.7,-10.25 -40.86085,-16.9557 -63.01085,-20.0657c-22.15,-3.11 -44.48162,-2.49656 -66.24162,1.92344c-5.66,1.15 -11.16992,-2.51552 -12.31992,-8.16552c-1.15,-5.66 2.51141,-11.17881 8.16141,-12.32881c24.1,-4.89 48.79613,-5.65714 73.30613,-2.21714c24.51,3.44 48.03231,10.99102 69.85231,22.34102c5.12,2.66 7.10893,8.97878 4.44893,14.09878z" data-paper-data="{&quot;noHover&quot;:false,&quot;origItem&quot;:[&quot;Path&quot;,{&quot;applyMatrix&quot;:true,&quot;segments&quot;:[[[320.84035,169.87],[0,0],[2.66,-5.12]],[[316.39035,155.78],[5.12,2.66],[-21.82,-11.35]],[[246.58035,133.49],[24.51,3.44],[-24.51,-3.44]],[[173.33035,135.67],[24.1,-4.89],[-5.65,1.15]],[[165.17035,147.99],[-1.15,-5.66],[1.15,5.65]],[[177.49035,156.15],[-5.66,1.15],[21.76,-4.42]],[[243.67035,154.18],[-22.15,-3.11],[22.15,3.11]],[[306.74035,174.31],[-19.7,-10.25],[1.09,0.56]],[[310.11035,175.39],[-1.15,-0.16],[4.26,0.6]],[[320.84035,169.86],[-2.1,4.04],[0,0]]],&quot;closed&quot;:true,&quot;fillColor&quot;:[0,0,0,1]}]}" fill="#000000" stroke-width="0.5"/></g></g></svg>