<svg xmlns="http://www.w3.org/2000/svg" width="527.76635" height="512.03861" viewBox="0,0,527.76635,512.03861"><g transform="translate(23.99184,76)"><g fill="#000000"><path d="M239.9,-76c9.2,0 17.6,5.2 21.6,13.5l68.6,141.3l153.2,22.6c9,1.3 16.5,7.6 19.3,16.3c2.8,8.7 0.5,18.1 -5.9,24.5l-111.1,110.2l26.2,155.6c1.5,9 -2.2,18.1 -9.7,23.5c-7.5,5.4 -17.3,6 -25.3,1.7l-137,-73.2l-136.8,73.1c-8.1,4.3 -17.9,3.7 -25.3,-1.7c-7.4,-5.4 -11.2,-14.5 -9.7,-23.5l26.2,-155.6l-111.1,-110.1c-6.5,-6.4 -8.7,-15.9 -5.9,-24.5c2.8,-8.6 10.3,-14.9 19.3,-16.3l153.2,-22.6l68.6,-141.3c4.1,-8.3 12.4,-13.5 21.6,-13.5z"/></g></g></svg>