<svg version="1.1" xmlns="http://www.w3.org/2000/svg" xmlns:xlink="http://www.w3.org/1999/xlink" width="98.87622" height="98.87622" viewBox="0,0,98.87622,98.87622"><g transform="translate(-190.56189,-130.56189)"><g data-paper-data="{&quot;isPaintingLayer&quot;:true}" fill-rule="nonzero" stroke="none" stroke-linecap="butt" stroke-linejoin="miter" stroke-miterlimit="10" stroke-dasharray="" stroke-dashoffset="0" style="mix-blend-mode: normal"><path d="M190.56189,180c0,-27.30392 22.13419,-49.43811 49.43811,-49.43811c27.30392,0 49.43811,22.13419 49.43811,49.43811c0,27.30392 -22.13419,49.43811 -49.43811,49.43811c-27.30392,0 -49.43811,-22.13419 -49.43811,-49.43811z" fill="#000000" stroke-width="0"/><path d="M250.5845,171.74743l-10.58282,10.58507l-10.58507,-10.58507l10.58507,-10.58059z" fill="#ffffff" stroke-width="1"/><path d="M250.5845,192.9161l-10.58282,10.58507l-10.58507,-10.58507l10.58507,-10.58507z" fill="#ffffff" stroke-width="1"/><path d="M229.41698,171.74832l-10.58507,10.58507l-10.58282,-10.58507l10.58282,-10.58282z" fill="#ffffff" stroke-width="1"/><path d="M271.7509,171.74832l-10.58282,10.58507l-10.58507,-10.58507l10.58507,-10.58282z" fill="#ffffff" stroke-width="1"/></g></g></svg>