<svg version="1.1" xmlns="http://www.w3.org/2000/svg" xmlns:xlink="http://www.w3.org/1999/xlink" width="396.09638" height="396.09638" viewBox="0,0,396.09638,396.09638"><g transform="translate(-41.95181,18.04819)"><g data-paper-data="{&quot;isPaintingLayer&quot;:true}" fill-rule="nonzero" stroke="none" stroke-linecap="butt" stroke-linejoin="miter" stroke-miterlimit="10" stroke-dasharray="" stroke-dashoffset="0" style="mix-blend-mode: normal"><path d="M41.95181,180c0,-109.379 88.66919,-198.04819 198.04819,-198.04819c109.379,0 198.04819,88.66919 198.04819,198.04819c0,109.379 -88.66919,198.04819 -198.04819,198.04819c-109.379,0 -198.04819,-88.66919 -198.04819,-198.04819z" fill="#000000" stroke-width="0"/><path d="M289.45425,147.78003v77.71115c0,38.87745 -31.53275,70.39031 -70.42849,70.39031c-19.73064,0 -37.56504,-8.10749 -50.35345,-21.17667c11.20477,7.52049 24.69312,11.90551 39.20515,11.90551c38.89336,0 70.42452,-31.51286 70.42452,-70.38872v-77.71274c14.96859,10.69094 33.29853,16.98174 53.09678,16.98174v-29.97536c3.66599,0.77631 7.40356,1.16685 11.15068,1.16605v38.08126c-19.79984,0 -38.13216,-6.2908 -53.09678,-16.98254zM303.20827,109.36073c-12.59035,-7.85217 -21.66266,-20.8076 -24.32247,-35.97186h10.56686v4.89806c1.08651,11.93097 6.10786,22.72292 13.75561,31.0738zM175.55091,216.11026c0,-17.78271 14.42136,-32.1977 32.2144,-32.1977c3.31681,-0.00318 6.61453,0.50587 9.77703,1.50807v-30.30306c3.72564,-0.07875 7.45288,0.13601 11.14591,0.64189v38.93233c-3.16011,-1.0022 -6.45624,-1.50966 -9.77226,-1.50887c-17.79305,0 -32.2152,14.41658 -32.2152,32.1969c-0.01034,7.04325 2.2987,13.89321 6.57158,19.49281c-10.51277,-5.30292 -17.72146,-16.18873 -17.72146,-28.76238z" fill="#ff004f" stroke-width="1"/><path d="M278.30278,138.50808v77.71354c0,38.87506 -31.53036,70.38952 -70.42451,70.38952c-14.51203,0 -28.00039,-4.38582 -39.20515,-11.90551c-12.42014,-12.68977 -20.07266,-30.05728 -20.07266,-49.21523c0,-38.37794 30.73019,-69.58298 68.9403,-70.37202v30.30306c-3.08217,-0.97754 -6.36795,-1.50807 -9.77703,-1.50807c-17.79305,0 -32.2144,14.41658 -32.2144,32.1977c0,12.57206 7.20869,23.45867 17.72067,28.76158c5.88674,7.72172 15.18176,12.70648 25.64442,12.70648c17.75487,0 32.15236,-14.35772 32.2152,-32.08953v-152.10073h27.7562c2.65981,15.16346 11.73132,28.1189 24.32247,35.97186c7.35584,8.02874 17.13923,13.80095 28.19049,16.15373v29.97536c-19.79824,0 -38.12819,-6.2908 -53.09678,-16.98174z" fill="#ffffff" stroke-width="1"/><path d="M303.20827,109.35993c8.45508,5.27508 18.22495,8.06454 28.19049,8.04943v8.1051c-10.85002,-2.31699 -20.70579,-7.96432 -28.19049,-16.15453zM251.1296,73.38886v152.10152c-0.06204,17.7318 -14.46192,32.08794 -32.2152,32.08794c-10.46266,0 -19.75768,-4.98396 -25.64442,-12.70489c4.35878,2.19768 9.2807,3.43453 14.49374,3.43453c17.75646,0 32.15316,-14.35772 32.2144,-32.08714v-152.10232h38.32385v4.89806c0.13522,1.46433 0.33009,2.92309 0.58382,4.3723zM148.60124,225.48959c0,19.15715 7.65252,36.52546 20.07266,49.21444c-18.83104,-12.6341 -31.22334,-34.11222 -31.22334,-58.48321c0,-38.87268 31.53116,-70.38634 70.42849,-70.38634c3.2325,-0.00158 6.46102,0.21795 9.66329,0.65542v8.62847c-38.2117,0.78904 -68.9411,31.99408 -68.9411,70.37122z" fill="#00f2ea" stroke-width="1"/></g></g></svg>