<svg version="1.1" xmlns="http://www.w3.org/2000/svg" xmlns:xlink="http://www.w3.org/1999/xlink" width="396.09638" height="396.09638" viewBox="0,0,396.09638,396.09638"><g transform="translate(-41.95181,18.04819)"><g data-paper-data="{&quot;isPaintingLayer&quot;:true}" fill-rule="nonzero" stroke="none" stroke-linecap="butt" stroke-linejoin="miter" stroke-miterlimit="10" stroke-dasharray="" stroke-dashoffset="0" style="mix-blend-mode: normal"><path d="M41.95181,180c0,-109.379 88.66919,-198.04819 198.04819,-198.04819c109.379,0 198.04819,88.66919 198.04819,198.04819c0,109.379 -88.66919,198.04819 -198.04819,198.04819c-109.379,0 -198.04819,-88.66919 -198.04819,-198.04819z" fill="#1d9bf0" stroke-width="0"/><path d="M331.91065,132.84626c0.14086,2.03776 0.14086,4.07553 0.14086,6.13207c0,62.66358 -47.70433,134.93375 -134.93375,134.93375v-0.03756c-25.76785,0.03756 -51.00043,-7.34346 -72.69275,-21.26035c3.74686,0.45075 7.51249,0.67612 11.28752,0.68551c21.35426,0.01878 42.09813,-7.14626 58.89794,-20.34007c-20.29312,-0.38502 -38.08834,-13.61639 -44.30492,-32.93289c7.1087,1.37103 14.43338,1.08931 21.4106,-0.81698c-22.12429,-4.46993 -38.04138,-23.90851 -38.04138,-46.48355v-0.601c6.59221,3.67173 13.97324,5.70949 21.52329,5.93487c-20.83778,-13.92628 -27.26096,-41.64738 -14.67753,-63.32092c24.07754,29.62739 59.60224,47.63859 97.73753,49.54489c-3.82198,-16.47114 1.3992,-33.73109 13.71969,-45.30972c19.10051,-17.95486 49.14109,-17.03458 67.09595,2.05654c10.62079,-2.09411 20.80021,-5.99121 30.1157,-11.51289c-3.54026,10.97763 -10.94946,20.30251 -20.84717,26.22799c9.40001,-1.10809 18.58403,-3.62478 27.23278,-7.46554c-6.36684,9.54087 -14.38642,17.85156 -23.66435,24.56585z" fill="#ffffff" stroke-width="1"/></g></g></svg>