<svg version="1.1" xmlns="http://www.w3.org/2000/svg" xmlns:xlink="http://www.w3.org/1999/xlink" width="396.09638" height="396.09638" viewBox="0,0,396.09638,396.09638"><g transform="translate(-41.95181,18.04819)"><g data-paper-data="{&quot;isPaintingLayer&quot;:true}" fill-rule="nonzero" stroke="none" stroke-linecap="butt" stroke-linejoin="miter" stroke-miterlimit="10" stroke-dasharray="" stroke-dashoffset="0" style="mix-blend-mode: normal"><path d="M41.95181,180c0,-109.379 88.66919,-198.04819 198.04819,-198.04819c109.379,0 198.04819,88.66919 198.04819,198.04819c0,109.379 -88.66919,198.04819 -198.04819,198.04819c-109.379,0 -198.04819,-88.66919 -198.04819,-198.04819z" fill="#ffffff" stroke-width="0"/><path d="M352.42933,123.15067c4.904,18.41867 4.904,56.84933 4.904,56.84933c0,0 0,38.42933 -4.904,56.85067c-2.69867,10.16133 -10.64933,18.164 -20.748,20.88133c-18.29867,4.93467 -91.68133,4.93467 -91.68133,4.93467c0,0 -73.38266,0 -91.68266,-4.93467c-10.09733,-2.71733 -18.04933,-10.72 -20.748,-20.88133c-4.90267,-18.42133 -4.90267,-56.85067 -4.90267,-56.85067c0,0 0,-38.43067 4.90267,-56.84933c2.69867,-10.16267 10.65067,-18.16533 20.748,-20.88133c18.3,-4.936 91.68266,-4.936 91.68266,-4.936c0,0 73.38266,0 91.68133,4.936c10.09867,2.716 18.04933,10.71867 20.748,20.88133" fill="#ff0000" stroke-width="1"/><path d="M215.9996,145.10813l61.33333,34.89333l-61.33333,34.89067z" fill="#ffffff" stroke-width="1"/></g></g></svg>